<svg width="45" height="41" viewBox="0 0 45 41" fill="none" xmlns="http://www.w3.org/2000/svg">
<g clip-path="url(#clip0_217_497)">
<path fill-rule="evenodd" clip-rule="evenodd" d="M4.20586 28.6215C1.88336 26.8039 0.722114 25.8951 0.287025 24.8471L0 23.4197V17.5717H1.46429V20.4811C2.10511 19.8802 2.9986 19.1809 4.20586 18.2361L15.8173 9.14897C18.1398 7.33136 19.301 6.42256 20.6401 6.08205C21.818 5.78254 23.0868 5.78254 24.2646 6.08205C25.6037 6.42256 26.765 7.33136 29.0875 9.14897L40.6989 18.2361C41.9062 19.1809 42.7997 19.8802 43.4405 20.4811V17.5717H44.9048V23.4288C44.9048 23.9075 44.8091 24.3862 44.6177 24.8471C44.1826 25.8951 43.0214 26.8039 40.6989 28.6215L29.0875 37.7087C26.7651 39.5263 25.6037 40.4351 24.2646 40.7756C23.0868 41.0751 21.818 41.0751 20.6401 40.7756C19.301 40.4351 18.1398 39.5263 15.8173 37.7087L4.20586 28.6215Z" fill="#DBDBDB"/>
<path d="M4.20588 22.7641C1.88338 20.9465 0.722125 20.0377 0.287036 18.9897C-0.0956787 18.0679 -0.0956787 17.0749 0.287036 16.1531C0.722125 15.1052 1.88338 14.1964 4.20588 12.3787L15.8173 3.29155C18.1398 1.47395 19.301 0.565142 20.6401 0.224637C21.818 -0.074879 23.0868 -0.074879 24.2647 0.224637C25.6037 0.565142 26.765 1.47395 29.0875 3.29156L40.6989 12.3787C43.0214 14.1964 44.1826 15.1052 44.6177 16.1531C45.0004 17.0749 45.0004 18.0679 44.6177 18.9897C44.1826 20.0377 43.0214 20.9465 40.6989 22.7641L29.0875 31.8513C26.765 33.6689 25.6037 34.5777 24.2647 34.9182C23.0868 35.2177 21.818 35.2177 20.6401 34.9182C19.301 34.5777 18.1398 33.6689 15.8173 31.8513L4.20588 22.7641Z" fill="white"/>
<path d="M17.476 11.5136C16.3147 10.6048 15.7341 10.1504 15.5165 9.62639C15.3252 9.16548 15.3252 8.669 15.5165 8.20809C15.7341 7.68411 16.3147 7.2297 17.476 6.3209L19.1347 5.02273C20.296 4.11392 20.8766 3.65952 21.5461 3.48927C22.1351 3.33951 22.7695 3.33951 23.3584 3.48927C24.028 3.65952 24.6086 4.11392 25.7698 5.02273L27.4286 6.3209C28.5899 7.2297 29.1705 7.68411 29.388 8.20809C29.5794 8.669 29.5794 9.16548 29.388 9.62639C29.1705 10.1504 28.5899 10.6048 27.4286 11.5136L25.7698 12.8118C24.6086 13.7206 24.028 14.175 23.3584 14.3452C22.7695 14.495 22.1351 14.495 21.5461 14.3452C20.8766 14.175 20.296 13.7206 19.1347 12.8118L17.476 11.5136Z" fill="#FF8686"/>
<path d="M28.5345 20.1679C27.3733 19.2591 26.7927 18.8047 26.5751 18.2807C26.3838 17.8198 26.3838 17.3233 26.5751 16.8624C26.7927 16.3384 27.3733 15.884 28.5345 14.9752L30.1933 13.677C31.3546 12.7682 31.9352 12.3138 32.6047 12.1436C33.1937 11.9938 33.8281 11.9938 34.417 12.1436C35.0865 12.3138 35.6672 12.7682 36.8284 13.677L38.4872 14.9752C39.6484 15.884 40.2291 16.3384 40.4466 16.8624C40.638 17.3233 40.638 17.8198 40.4466 18.2807C40.2291 18.8047 39.6484 19.2591 38.4872 20.1679L36.8284 21.466C35.6672 22.3748 35.0865 22.8292 34.417 22.9995C33.8281 23.1493 33.1937 23.1493 32.6047 22.9995C31.9352 22.8292 31.3546 22.3748 30.1933 21.466L28.5345 20.1679Z" fill="#5AFF88"/>
<path d="M6.41739 20.1679C5.25614 19.2591 4.67552 18.8047 4.45797 18.2807C4.26662 17.8198 4.26662 17.3233 4.45797 16.8624C4.67552 16.3384 5.25614 15.884 6.41739 14.9752L8.07617 13.677C9.23742 12.7682 9.81804 12.3138 10.4876 12.1436C11.0765 11.9938 11.7109 11.9938 12.2998 12.1436C12.9694 12.3138 13.55 12.7682 14.7112 13.677L27.4285 23.6297C28.5898 24.5385 29.1704 24.9929 29.3879 25.5168C29.5793 25.9778 29.5793 26.4742 29.3879 26.9351C29.1704 27.4591 28.5898 27.9135 27.4285 28.8223L25.7697 30.1205C24.6085 31.0293 24.0279 31.4837 23.3583 31.654C22.7694 31.8037 22.135 31.8037 21.546 31.654C20.8765 31.4837 20.2959 31.0293 19.1346 30.1205L6.41739 20.1679Z" fill="#768CFF"/>
</g>
<defs>
<clipPath id="clip0_217_497">
<rect width="45" height="41" fill="white"/>
</clipPath>
</defs>
</svg>
