<svg width="24" height="24" viewBox="0 0 24 24" fill="none" xmlns="http://www.w3.org/2000/svg">
<path fill-rule="evenodd" clip-rule="evenodd" d="M1.48966 22.0614C1.05032 21.6221 1.05032 20.9097 1.48966 20.4704L20.9098 1.05021C21.3492 0.610868 22.0615 0.610868 22.5009 1.05021C22.9402 1.48955 22.9402 2.20186 22.5009 2.6412L3.08065 22.0614C2.64131 22.5008 1.92899 22.5008 1.48966 22.0614Z" fill="white"/>
<path fill-rule="evenodd" clip-rule="evenodd" d="M1.14591 12.5768C0.706571 12.1375 0.706571 11.4252 1.14591 10.9858L10.8686 1.2631C11.308 0.823759 12.0203 0.823759 12.4596 1.2631C12.899 1.70244 12.899 2.41474 12.4596 2.85409L2.73691 12.5768C2.29756 13.0161 1.58525 13.0161 1.14591 12.5768Z" fill="white"/>
<path fill-rule="evenodd" clip-rule="evenodd" d="M10.974 22.4049C10.5347 21.9655 10.5347 21.2533 10.974 20.814L20.6968 11.0912C21.1362 10.6519 21.8484 10.6519 22.2877 11.0912C22.7271 11.5306 22.7271 12.2429 22.2877 12.6822L12.565 22.4049C12.1257 22.8442 11.4134 22.8442 10.974 22.4049Z" fill="white"/>
</svg>
