<svg width="3246" height="2554" viewBox="0 0 3246 2554" fill="none" xmlns="http://www.w3.org/2000/svg">
<mask id="path-1-inside-1_758_90" fill="white">
<path fill-rule="evenodd" clip-rule="evenodd" d="M1853 782C1839.75 782 1829 792.745 1829 806V1366C1829 1379.25 1839.75 1390 1853 1390H2418C2431.25 1390 2442 1379.25 2442 1366V806C2442 792.745 2431.25 782 2418 782H1853ZM2154.21 942.948C2168.8 937.385 2189.84 933.783 2209.84 941.173C2210.4 941.381 2210.96 941.588 2211.52 941.794L2212.27 942.072C2234.14 950.135 2253.33 957.212 2268.55 974.423C2283.86 991.734 2297.43 1022.37 2297.43 1083.09C2297.43 1174.57 2237.38 1217.46 2210.05 1227.21L2209.99 1227.23L2209.94 1227.25C2197.22 1231.87 2179.42 1235.85 2166.09 1234.73C2159.51 1234.17 2156.31 1232.56 2155.04 1231.49L2155.02 1231.47C2154.66 1231.17 2153.81 1230.46 2153.34 1228.2C2153.4 1227.2 2153.43 1226.21 2153.43 1225.22V1174.53C2170.6 1165.68 2178.13 1166.26 2180.63 1166.96C2183.03 1167.64 2185.99 1169.78 2191.37 1179.36C2196.77 1189 2208.95 1192.44 2218.59 1187.04C2228.23 1181.64 2231.66 1169.45 2226.26 1159.81C2220.51 1149.54 2210.72 1133.88 2191.47 1128.46C2179.82 1125.18 2167.19 1126.32 2153.43 1131.02V1014.3C2153.53 1013.17 2153.53 1012.02 2153.43 1010.87V947.517C2153.43 946.454 2153.41 945.402 2153.35 944.361C2153.48 943.982 2153.63 943.675 2153.76 943.446C2153.93 943.172 2154.06 943.049 2154.1 943.011C2154.13 942.983 2154.15 942.969 2154.21 942.948ZM2113 1224.4V1043.71C2100.66 1047.4 2089.24 1048.08 2078.64 1045.09C2059.39 1039.67 2049.6 1024.01 2043.84 1013.74C2038.44 1004.1 2041.88 991.915 2051.51 986.515C2061.15 981.116 2073.34 984.551 2078.74 994.187C2084.11 1003.78 2087.08 1005.91 2089.48 1006.59C2091.79 1007.24 2098.41 1007.79 2113 1000.84V946.693C2113 945.709 2113.03 944.717 2113.1 943.72C2112.62 941.459 2111.77 940.745 2111.41 940.447L2111.39 940.426C2110.12 939.361 2106.93 937.745 2100.34 937.19C2087.01 936.066 2069.21 940.047 2056.49 944.668L2056.44 944.688L2056.38 944.709C2029.05 954.457 1969 997.352 1969 1088.83C1969 1149.54 1982.57 1180.18 1997.88 1197.49C2013.1 1214.71 2032.29 1221.78 2054.16 1229.85L2054.17 1229.85C2054.97 1230.15 2055.78 1230.44 2056.59 1230.74C2076.6 1238.14 2097.63 1234.53 2112.22 1228.97C2112.28 1228.95 2112.3 1228.93 2112.33 1228.91C2112.38 1228.87 2112.5 1228.75 2112.67 1228.47C2112.81 1228.24 2112.95 1227.94 2113.08 1227.56C2113.03 1226.52 2113 1225.46 2113 1224.4ZM2139.96 905.572C2138.14 906.267 2136.41 907.068 2134.78 907.962C2125.16 900.878 2113.73 898.177 2103.7 897.331C2082.15 895.515 2058.1 901.531 2042.89 907.054C2003.1 921.272 1929 977.069 1929 1088.83C1929 1155.18 1943.85 1196.78 1967.92 1223.99C1990.03 1248.99 2018 1259.22 2038.67 1266.78L2038.68 1266.78C2040.06 1267.29 2041.42 1267.78 2042.73 1268.27C2075 1280.19 2106.62 1273.92 2126.47 1266.35C2128.3 1265.65 2130.02 1264.85 2131.65 1263.96C2141.28 1271.04 2152.71 1273.74 2162.73 1274.59C2184.28 1276.4 2208.33 1270.39 2223.54 1264.86C2263.33 1250.65 2337.43 1194.85 2337.43 1083.09C2337.43 1016.74 2322.58 975.138 2298.51 947.924C2276.41 922.926 2248.43 912.698 2227.76 905.143C2226.37 904.635 2225.02 904.14 2223.7 903.652C2191.43 891.73 2159.81 898.003 2139.96 905.572ZM2224.18 998.695C2224.32 987.65 2215.48 978.581 2204.43 978.439C2193.39 978.296 2184.32 987.134 2184.18 998.179C2183.99 1012.7 2187.85 1034.14 2200.71 1052.56C2214.31 1072.06 2237.09 1086.72 2270.7 1086.72C2281.74 1086.72 2290.7 1077.76 2290.7 1066.72C2290.7 1055.67 2281.74 1046.72 2270.7 1046.72C2250.38 1046.72 2239.76 1038.62 2233.51 1029.67C2226.51 1019.64 2224.07 1006.94 2224.18 998.695ZM2096.42 1151.33C2092.84 1137.26 2083.56 1117.55 2066.38 1103.08C2048.19 1087.77 2022.39 1079.5 1989.93 1088.2C1979.26 1091.06 1972.93 1102.03 1975.79 1112.7C1978.65 1123.37 1989.61 1129.7 2000.28 1126.84C2019.91 1121.58 2032.27 1126.65 2040.62 1133.68C2049.98 1141.56 2055.62 1153.2 2057.65 1161.18C2060.37 1171.89 2071.26 1178.36 2081.96 1175.64C2092.67 1172.92 2099.14 1162.04 2096.42 1151.33Z"/>
</mask>
<path fill-rule="evenodd" clip-rule="evenodd" d="M1853 782C1839.75 782 1829 792.745 1829 806V1366C1829 1379.25 1839.75 1390 1853 1390H2418C2431.25 1390 2442 1379.25 2442 1366V806C2442 792.745 2431.25 782 2418 782H1853ZM2154.21 942.948C2168.8 937.385 2189.84 933.783 2209.84 941.173C2210.4 941.381 2210.96 941.588 2211.52 941.794L2212.27 942.072C2234.14 950.135 2253.33 957.212 2268.55 974.423C2283.86 991.734 2297.43 1022.37 2297.43 1083.09C2297.43 1174.57 2237.38 1217.46 2210.05 1227.21L2209.99 1227.23L2209.94 1227.25C2197.22 1231.87 2179.42 1235.85 2166.09 1234.73C2159.51 1234.17 2156.31 1232.56 2155.04 1231.49L2155.02 1231.47C2154.66 1231.17 2153.81 1230.46 2153.34 1228.2C2153.4 1227.2 2153.43 1226.21 2153.43 1225.22V1174.53C2170.6 1165.68 2178.13 1166.26 2180.63 1166.96C2183.03 1167.64 2185.99 1169.78 2191.37 1179.36C2196.77 1189 2208.95 1192.44 2218.59 1187.04C2228.23 1181.64 2231.66 1169.45 2226.26 1159.81C2220.51 1149.54 2210.72 1133.88 2191.47 1128.46C2179.82 1125.18 2167.19 1126.32 2153.43 1131.02V1014.3C2153.53 1013.17 2153.53 1012.02 2153.43 1010.87V947.517C2153.43 946.454 2153.41 945.402 2153.35 944.361C2153.48 943.982 2153.63 943.675 2153.76 943.446C2153.93 943.172 2154.06 943.049 2154.1 943.011C2154.13 942.983 2154.15 942.969 2154.21 942.948ZM2113 1224.4V1043.71C2100.66 1047.4 2089.24 1048.08 2078.64 1045.09C2059.39 1039.67 2049.6 1024.01 2043.84 1013.74C2038.44 1004.1 2041.88 991.915 2051.51 986.515C2061.15 981.116 2073.34 984.551 2078.74 994.187C2084.11 1003.78 2087.08 1005.91 2089.48 1006.59C2091.79 1007.24 2098.41 1007.79 2113 1000.84V946.693C2113 945.709 2113.03 944.717 2113.1 943.72C2112.62 941.459 2111.77 940.745 2111.41 940.447L2111.39 940.426C2110.12 939.361 2106.93 937.745 2100.34 937.19C2087.01 936.066 2069.21 940.047 2056.49 944.668L2056.44 944.688L2056.38 944.709C2029.05 954.457 1969 997.352 1969 1088.83C1969 1149.54 1982.57 1180.18 1997.88 1197.49C2013.1 1214.71 2032.29 1221.78 2054.16 1229.85L2054.17 1229.85C2054.97 1230.15 2055.78 1230.44 2056.59 1230.74C2076.6 1238.14 2097.63 1234.53 2112.22 1228.97C2112.28 1228.95 2112.3 1228.93 2112.33 1228.91C2112.38 1228.87 2112.5 1228.75 2112.67 1228.47C2112.81 1228.24 2112.95 1227.94 2113.08 1227.56C2113.03 1226.52 2113 1225.46 2113 1224.4ZM2139.96 905.572C2138.14 906.267 2136.41 907.068 2134.78 907.962C2125.16 900.878 2113.73 898.177 2103.7 897.331C2082.15 895.515 2058.1 901.531 2042.89 907.054C2003.1 921.272 1929 977.069 1929 1088.83C1929 1155.18 1943.85 1196.78 1967.92 1223.99C1990.03 1248.99 2018 1259.22 2038.67 1266.78L2038.68 1266.78C2040.06 1267.29 2041.42 1267.78 2042.73 1268.27C2075 1280.19 2106.62 1273.92 2126.47 1266.35C2128.3 1265.65 2130.02 1264.85 2131.65 1263.96C2141.28 1271.04 2152.71 1273.74 2162.73 1274.59C2184.28 1276.4 2208.33 1270.39 2223.54 1264.86C2263.33 1250.65 2337.43 1194.85 2337.43 1083.09C2337.43 1016.74 2322.58 975.138 2298.51 947.924C2276.41 922.926 2248.43 912.698 2227.76 905.143C2226.37 904.635 2225.02 904.14 2223.7 903.652C2191.43 891.73 2159.81 898.003 2139.96 905.572ZM2224.18 998.695C2224.32 987.65 2215.48 978.581 2204.43 978.439C2193.39 978.296 2184.32 987.134 2184.18 998.179C2183.99 1012.7 2187.85 1034.14 2200.71 1052.56C2214.31 1072.06 2237.09 1086.72 2270.7 1086.72C2281.74 1086.72 2290.7 1077.76 2290.7 1066.72C2290.7 1055.67 2281.74 1046.72 2270.7 1046.72C2250.38 1046.72 2239.76 1038.62 2233.51 1029.67C2226.51 1019.64 2224.07 1006.94 2224.18 998.695ZM2096.42 1151.33C2092.84 1137.26 2083.56 1117.55 2066.38 1103.08C2048.19 1087.77 2022.39 1079.5 1989.93 1088.2C1979.26 1091.06 1972.93 1102.03 1975.79 1112.7C1978.65 1123.37 1989.61 1129.7 2000.28 1126.84C2019.91 1121.58 2032.27 1126.65 2040.62 1133.68C2049.98 1141.56 2055.62 1153.2 2057.65 1161.18C2060.37 1171.89 2071.26 1178.36 2081.96 1175.64C2092.67 1172.92 2099.14 1162.04 2096.42 1151.33Z" fill="white"/>
<path d="M2209.84 941.173L2234.79 873.636L2234.79 873.636L2209.84 941.173ZM2154.21 942.948L2128.56 875.671L2128.55 875.675L2154.21 942.948ZM2211.52 941.794L2186.61 1009.35L2186.61 1009.35L2211.52 941.794ZM2212.27 942.072L2187.36 1009.62L2187.36 1009.62L2212.27 942.072ZM2268.55 974.423L2322.49 926.725L2322.49 926.725L2268.55 974.423ZM2210.05 1227.21L2185.86 1159.39L2185.85 1159.4L2210.05 1227.21ZM2209.99 1227.23L2185.8 1159.42L2185.6 1159.49L2185.41 1159.56L2209.99 1227.23ZM2209.94 1227.25L2185.35 1159.58L2185.34 1159.58L2209.94 1227.25ZM2166.09 1234.73L2172.14 1162.98L2172.14 1162.98L2166.09 1234.73ZM2155.04 1231.49L2201.42 1176.42L2201.38 1176.39L2201.35 1176.36L2155.04 1231.49ZM2155.02 1231.47L2201.32 1176.34L2201.3 1176.32L2201.28 1176.3L2155.02 1231.47ZM2153.34 1228.2L2081.48 1223.6L2080.86 1233.41L2082.88 1243.03L2153.34 1228.2ZM2153.43 1174.53L2120.44 1110.53L2081.43 1130.64V1174.53H2153.43ZM2180.63 1166.96L2161.11 1236.27L2161.11 1236.27L2180.63 1166.96ZM2191.37 1179.36L2254.18 1144.17L2254.18 1144.17L2191.37 1179.36ZM2218.59 1187.04L2253.78 1249.85L2253.78 1249.85L2218.59 1187.04ZM2226.26 1159.81L2289.07 1124.62L2289.07 1124.62L2226.26 1159.81ZM2191.47 1128.46L2210.98 1059.15L2210.98 1059.15L2191.47 1128.46ZM2153.43 1131.02H2081.43V1231.75L2176.74 1199.15L2153.43 1131.02ZM2153.43 1014.3L2081.7 1008.12L2081.43 1011.21V1014.3H2153.43ZM2153.43 1010.87H2081.43V1013.97L2081.7 1017.06L2153.43 1010.87ZM2153.35 944.361L2085.04 921.63L2080.77 934.448L2081.44 947.94L2153.35 944.361ZM2153.76 943.446L2092.09 906.291L2092.09 906.297L2153.76 943.446ZM2154.1 943.011L2201.1 997.557L2201.11 997.548L2154.1 943.011ZM2113 1043.71H2185V946.98L2092.34 974.734L2113 1043.71ZM2078.64 1045.09L2098.15 975.786L2098.15 975.786L2078.64 1045.09ZM2043.84 1013.74L2106.65 978.546L2106.65 978.546L2043.84 1013.74ZM2051.51 986.515L2016.32 923.703L2016.32 923.703L2051.51 986.515ZM2078.74 994.187L2141.55 958.994L2141.55 958.994L2078.74 994.187ZM2089.48 1006.59L2108.99 937.283L2108.99 937.283L2089.48 1006.59ZM2113 1000.84L2143.94 1065.86L2185 1046.32V1000.84H2113ZM2113.1 943.72L2184.95 948.322L2185.58 938.51L2183.55 928.888L2113.1 943.72ZM2111.41 940.447L2065.11 995.587L2065.14 995.605L2065.16 995.622L2111.41 940.447ZM2111.39 940.426L2065.01 995.502L2065.05 995.534L2065.09 995.566L2111.39 940.426ZM2100.34 937.19L2106.39 865.445L2106.39 865.445L2100.34 937.19ZM2056.49 944.668L2081.09 1012.34L2081.09 1012.34L2056.49 944.668ZM2056.44 944.688L2080.63 1012.5L2080.83 1012.43L2081.03 1012.36L2056.44 944.688ZM2056.38 944.709L2080.57 1012.52L2080.57 1012.52L2056.38 944.709ZM1997.88 1197.49L2051.81 1149.8L2051.81 1149.8L1997.88 1197.49ZM2054.16 1229.85L2029.25 1297.4L2029.29 1297.42L2029.33 1297.43L2054.16 1229.85ZM2054.17 1229.85L2079.08 1162.3L2079.04 1162.28L2079 1162.27L2054.17 1229.85ZM2056.59 1230.74L2081.55 1163.21L2081.55 1163.21L2056.59 1230.74ZM2112.22 1228.97L2086.59 1161.69L2086.58 1161.69L2086.58 1161.69L2112.22 1228.97ZM2112.33 1228.91L2065.35 1174.35L2065.33 1174.36L2065.31 1174.38L2112.33 1228.91ZM2112.67 1228.47L2050.99 1191.32L2050.99 1191.33L2112.67 1228.47ZM2113.08 1227.56L2181.4 1250.29L2185.66 1237.47L2184.99 1223.98L2113.08 1227.56ZM2134.78 907.962L2092.11 965.951L2129.12 993.192L2169.42 971.085L2134.78 907.962ZM2139.96 905.572L2165.61 972.849L2165.61 972.849L2139.96 905.572ZM2103.7 897.331L2109.75 825.586L2109.75 825.586L2103.7 897.331ZM2042.89 907.054L2067.12 974.854L2067.29 974.794L2067.46 974.732L2042.89 907.054ZM1929 1088.83L2001 1088.83L2001 1088.83L1929 1088.83ZM1967.92 1223.99L1913.98 1271.69L1913.98 1271.69L1967.92 1223.99ZM2038.67 1266.78L2063.46 1199.18L2063.43 1199.17L2063.39 1199.15L2038.67 1266.78ZM2038.68 1266.78L2013.88 1334.38L2013.92 1334.39L2013.96 1334.4L2038.68 1266.78ZM2042.73 1268.27L2017.78 1335.8L2017.78 1335.8L2042.73 1268.27ZM2126.47 1266.35L2152.12 1333.62L2152.12 1333.62L2126.47 1266.35ZM2131.65 1263.96L2174.33 1205.97L2137.31 1178.73L2097.02 1200.83L2131.65 1263.96ZM2162.73 1274.59L2168.78 1202.84L2168.78 1202.84L2162.73 1274.59ZM2223.54 1264.86L2199.32 1197.06L2199.15 1197.12L2198.98 1197.19L2223.54 1264.86ZM2298.51 947.924L2244.58 995.623L2244.58 995.623L2298.51 947.924ZM2227.76 905.143L2252.48 837.52L2252.48 837.52L2227.76 905.143ZM2223.7 903.652L2248.65 836.115L2248.65 836.115L2223.7 903.652ZM2224.18 998.695L2152.18 997.767L2152.18 997.767L2224.18 998.695ZM2184.18 998.179L2112.18 997.251L2112.18 997.252L2184.18 998.179ZM2200.71 1052.56L2259.75 1011.36L2259.75 1011.36L2200.71 1052.56ZM2233.51 1029.67L2174.46 1070.87L2174.46 1070.87L2233.51 1029.67ZM2066.38 1103.08L2112.75 1048L2112.75 1048L2066.38 1103.08ZM2096.42 1151.33L2026.64 1169.07L2026.64 1169.07L2096.42 1151.33ZM1989.93 1088.2L2008.57 1157.75L2008.57 1157.75L1989.93 1088.2ZM2000.28 1126.84L2018.92 1196.38L2018.92 1196.38L2000.28 1126.84ZM2040.62 1133.68L2086.99 1078.6L2086.99 1078.6L2040.62 1133.68ZM2057.65 1161.18L2127.43 1143.45L2127.43 1143.45L2057.65 1161.18ZM2081.96 1175.64L2099.7 1245.42L2099.7 1245.42L2081.96 1175.64ZM1901 806C1901 832.51 1879.51 854 1853 854V710C1799.98 710 1757 752.981 1757 806H1901ZM1901 1366V806H1757V1366H1901ZM1853 1318C1879.51 1318 1901 1339.49 1901 1366H1757C1757 1419.02 1799.98 1462 1853 1462V1318ZM2418 1318H1853V1462H2418V1318ZM2370 1366C2370 1339.49 2391.49 1318 2418 1318V1462C2471.02 1462 2514 1419.02 2514 1366H2370ZM2370 806V1366H2514V806H2370ZM2418 854C2391.49 854 2370 832.51 2370 806H2514C2514 752.981 2471.02 710 2418 710V854ZM1853 854H2418V710H1853V854ZM2234.79 873.636C2192.75 858.102 2152.69 866.475 2128.56 875.671L2179.86 1010.23C2180.58 1009.95 2181.5 1009.66 2182.49 1009.43C2183.49 1009.2 2184.35 1009.07 2185.03 1009.03C2186.47 1008.93 2186.21 1009.2 2184.88 1008.71L2234.79 873.636ZM2236.43 874.242C2235.88 874.038 2235.34 873.837 2234.79 873.636L2184.88 1008.71C2185.46 1008.93 2186.04 1009.14 2186.61 1009.35L2236.43 874.242ZM2237.18 874.519L2236.43 874.241L2186.61 1009.35L2187.36 1009.62L2237.18 874.519ZM2322.49 926.725C2293.45 893.895 2256.64 881.694 2237.18 874.518L2187.36 1009.62C2199.18 1013.98 2204.96 1016.23 2209.56 1018.63C2213.1 1020.48 2214.1 1021.53 2214.62 1022.12L2322.49 926.725ZM2369.43 1083.09C2369.43 1012.19 2353.54 961.844 2322.49 926.725L2214.62 1022.12C2214.86 1022.4 2217.3 1025.06 2219.86 1033.47C2222.58 1042.41 2225.43 1057.86 2225.43 1083.09H2369.43ZM2234.24 1295.03C2284.1 1277.24 2369.43 1211.04 2369.43 1083.09H2225.43C2225.43 1111.87 2216.36 1129.92 2207.45 1141.22C2202.7 1147.25 2197.61 1151.81 2193.16 1155.01C2188.44 1158.41 2185.52 1159.52 2185.86 1159.39L2234.24 1295.03ZM2234.19 1295.04L2234.25 1295.02L2185.85 1159.4L2185.8 1159.42L2234.19 1295.04ZM2234.52 1294.92L2234.58 1294.9L2185.41 1159.56L2185.35 1159.58L2234.52 1294.92ZM2160.05 1306.47C2188.22 1308.85 2217.34 1301.17 2234.53 1294.92L2185.34 1159.58C2182.56 1160.59 2178.76 1161.67 2175.09 1162.36C2173.34 1162.68 2172.04 1162.84 2171.27 1162.89C2170.41 1162.96 2170.77 1162.87 2172.14 1162.98L2160.05 1306.47ZM2108.67 1286.57C2125.74 1300.95 2145.65 1305.26 2160.05 1306.47L2172.14 1162.98C2173.58 1163.1 2177.04 1163.53 2181.78 1165.14C2186.14 1166.63 2193.55 1169.79 2201.42 1176.42L2108.67 1286.57ZM2108.71 1286.61L2108.74 1286.63L2201.35 1176.36L2201.32 1176.34L2108.71 1286.61ZM2082.88 1243.03C2084.6 1251.21 2087.8 1260.29 2093.46 1269.19C2099.59 1278.84 2106.39 1284.66 2108.76 1286.64L2201.28 1176.3C2201.21 1176.24 2202.06 1176.94 2203.06 1177.85C2204.13 1178.81 2205.42 1180.03 2206.82 1181.51C2209.71 1184.54 2212.49 1188.01 2214.99 1191.95C2220.01 1199.85 2222.55 1207.45 2223.79 1213.37L2082.88 1243.03ZM2081.43 1225.22C2081.43 1224.66 2081.45 1224.12 2081.48 1223.6L2225.19 1232.8C2225.35 1230.28 2225.43 1227.76 2225.43 1225.22H2081.43ZM2081.43 1174.53V1225.22H2225.43V1174.53H2081.43ZM2200.14 1097.66C2171.61 1089.63 2143.75 1098.51 2120.44 1110.53L2186.43 1238.52C2190.92 1236.2 2190.69 1236.95 2186.73 1237.75C2182.6 1238.58 2173.22 1239.68 2161.11 1236.27L2200.14 1097.66ZM2254.18 1144.17C2248.27 1133.63 2233.01 1106.91 2200.14 1097.66L2161.11 1236.27C2155.41 1234.66 2149.53 1232.16 2143.91 1228.58C2138.62 1225.21 2134.87 1221.73 2132.49 1219.21C2128.35 1214.81 2127.07 1211.92 2128.55 1214.56L2254.18 1144.17ZM2183.4 1124.22C2208.45 1110.19 2240.14 1119.12 2254.18 1144.17L2128.55 1214.56C2153.39 1258.88 2209.46 1274.68 2253.78 1249.85L2183.4 1124.22ZM2163.45 1195.01C2149.41 1169.95 2158.34 1138.26 2183.4 1124.22L2253.78 1249.85C2298.11 1225.01 2313.91 1168.95 2289.07 1124.62L2163.45 1195.01ZM2171.95 1197.77C2169.46 1197.06 2167.17 1195.98 2165.25 1194.74C2163.4 1193.55 2162.23 1192.44 2161.68 1191.86C2161.16 1191.31 2161.1 1191.14 2161.47 1191.69C2161.86 1192.26 2162.42 1193.18 2163.45 1195.01L2289.07 1124.62C2282.59 1113.04 2260.51 1073.1 2210.98 1059.15L2171.95 1197.77ZM2176.74 1199.15C2179.01 1198.37 2179.48 1198.48 2178.49 1198.55C2177.32 1198.64 2174.94 1198.61 2171.95 1197.77L2210.98 1059.15C2181.2 1050.77 2153.09 1055.04 2130.13 1062.9L2176.74 1199.15ZM2081.43 1014.3V1131.02H2225.43V1014.3H2081.43ZM2081.7 1017.06C2081.44 1014.06 2081.44 1011.07 2081.7 1008.12L2225.17 1020.48C2225.62 1015.26 2225.62 1009.97 2225.16 1004.68L2081.7 1017.06ZM2081.43 947.517V1010.87H2225.43V947.517H2081.43ZM2081.44 947.94C2081.43 947.764 2081.43 947.623 2081.43 947.517H2225.43C2225.43 945.285 2225.38 943.04 2225.27 940.782L2081.44 947.94ZM2092.09 906.297C2088.91 911.57 2086.64 916.798 2085.04 921.63L2221.67 967.092C2220.32 971.166 2218.34 975.779 2215.44 980.595L2092.09 906.297ZM2107.1 888.465C2100.97 893.754 2095.98 899.84 2092.09 906.291L2215.44 980.6C2211.88 986.503 2207.15 992.344 2201.1 997.557L2107.1 888.465ZM2128.55 875.675C2120.65 878.687 2113.42 883.023 2107.09 888.474L2201.11 997.548C2199.98 998.519 2196.33 1001.65 2191.06 1004.79C2186.05 1007.78 2181.78 1009.49 2179.87 1010.22L2128.55 875.675ZM2041 1043.71V1224.4H2185V1043.71H2041ZM2059.12 1114.4C2086.19 1122.02 2111.96 1119.18 2133.66 1112.68L2092.34 974.734C2090.8 975.194 2090.76 975.031 2091.93 974.979C2093.23 974.92 2095.45 975.027 2098.15 975.786L2059.12 1114.4ZM1981.03 1048.93C1987.52 1060.52 2009.59 1100.45 2059.12 1114.4L2098.15 975.786C2100.64 976.488 2102.93 977.571 2104.86 978.807C2106.7 979.997 2107.87 981.107 2108.42 981.69C2108.95 982.244 2109 982.409 2108.63 981.862C2108.24 981.287 2107.68 980.375 2106.65 978.546L1981.03 1048.93ZM2016.32 923.703C1971.99 948.539 1956.19 1004.61 1981.03 1048.93L2106.65 978.546C2120.69 1003.6 2111.76 1035.29 2086.71 1049.33L2016.32 923.703ZM2141.55 958.994C2116.71 914.667 2060.65 898.867 2016.32 923.703L2086.71 1049.33C2061.65 1063.37 2029.96 1054.44 2015.92 1029.38L2141.55 958.994ZM2108.99 937.283C2114.69 938.888 2120.57 941.392 2126.2 944.971C2131.49 948.337 2135.24 951.824 2137.61 954.34C2141.76 958.74 2143.03 961.636 2141.55 958.994L2015.92 1029.38C2021.83 1039.92 2037.09 1066.64 2069.96 1075.89L2108.99 937.283ZM2082.06 935.831C2079 937.289 2080.07 936.359 2084.4 935.611C2088.91 934.835 2097.78 934.129 2108.99 937.283L2069.96 1075.89C2096.55 1083.38 2122.45 1076.08 2143.94 1065.86L2082.06 935.831ZM2041 946.693V1000.84H2185V946.693H2041ZM2041.24 939.117C2041.08 941.637 2041 944.164 2041 946.693H2185C2185 947.254 2184.98 947.797 2184.95 948.322L2041.24 939.117ZM2065.16 995.622C2065.22 995.675 2064.38 994.975 2063.37 994.072C2062.3 993.108 2061.01 991.884 2059.61 990.407C2056.72 987.378 2053.95 983.904 2051.45 979.971C2046.42 972.069 2043.89 964.471 2042.64 958.551L2183.55 928.888C2181.83 920.708 2178.63 911.622 2172.97 902.723C2166.84 893.077 2160.04 887.258 2157.67 885.273L2065.16 995.622ZM2065.09 995.566L2065.11 995.587L2157.71 885.308L2157.69 885.286L2065.09 995.566ZM2094.29 1008.94C2092.85 1008.81 2089.39 1008.39 2084.65 1006.77C2080.29 1005.29 2072.88 1002.13 2065.01 995.502L2157.76 885.35C2140.69 870.973 2120.78 866.658 2106.39 865.445L2094.29 1008.94ZM2081.09 1012.34C2083.87 1011.33 2087.68 1010.24 2091.34 1009.56C2093.1 1009.24 2094.39 1009.08 2095.17 1009.02C2096.03 1008.96 2095.66 1009.05 2094.29 1008.94L2106.39 865.445C2078.21 863.07 2049.1 870.749 2031.9 876.999L2081.09 1012.34ZM2081.03 1012.36L2081.09 1012.34L2031.9 876.998L2031.84 877.019L2081.03 1012.36ZM2080.57 1012.52L2080.63 1012.5L2032.25 876.874L2032.19 876.895L2080.57 1012.52ZM2041 1088.83C2041 1060.04 2050.07 1042 2058.98 1030.7C2063.73 1024.67 2068.82 1020.11 2073.27 1016.9C2077.99 1013.5 2080.91 1012.4 2080.57 1012.52L2032.2 876.893C1982.33 894.678 1897 960.873 1897 1088.83H2041ZM2051.81 1149.8C2051.57 1149.52 2049.13 1146.86 2046.57 1138.45C2043.85 1129.51 2041 1114.06 2041 1088.83H1897C1897 1159.72 1912.89 1210.07 1943.95 1245.19L2051.81 1149.8ZM2079.07 1162.29C2067.25 1157.93 2061.48 1155.69 2056.87 1153.28C2053.33 1151.44 2052.34 1150.39 2051.81 1149.8L1943.95 1245.19C1972.98 1278.02 2009.79 1290.22 2029.25 1297.4L2079.07 1162.29ZM2079 1162.27L2078.99 1162.26L2029.33 1297.43L2029.34 1297.43L2079 1162.27ZM2081.55 1163.21C2080.71 1162.9 2079.88 1162.59 2079.08 1162.3L2029.26 1297.4C2030.06 1297.7 2030.85 1297.99 2031.64 1298.28L2081.55 1163.21ZM2086.58 1161.69C2085.85 1161.97 2084.94 1162.26 2083.94 1162.49C2082.94 1162.72 2082.08 1162.84 2081.4 1162.89C2079.96 1162.99 2080.22 1162.72 2081.55 1163.21L2031.64 1298.28C2073.68 1313.82 2113.75 1305.44 2137.87 1296.25L2086.58 1161.69ZM2065.31 1174.38C2066.43 1173.41 2070.09 1170.28 2075.38 1167.12C2080.4 1164.12 2084.67 1162.42 2086.59 1161.69L2137.86 1296.25C2139.83 1295.5 2144.14 1293.78 2149.19 1290.76C2154.51 1287.59 2158.2 1284.43 2159.35 1283.43L2065.31 1174.38ZM2050.99 1191.33C2054.55 1185.42 2059.29 1179.57 2065.35 1174.35L2159.31 1283.47C2165.47 1278.17 2170.46 1272.07 2174.35 1265.62L2050.99 1191.33ZM2044.76 1204.83C2046.12 1200.75 2048.09 1196.14 2050.99 1191.32L2174.34 1265.62C2177.52 1260.35 2179.79 1255.12 2181.4 1250.29L2044.76 1204.83ZM2041 1224.4C2041 1226.63 2041.05 1228.88 2041.17 1231.14L2184.99 1223.98C2185 1224.15 2185 1224.3 2185 1224.4H2041ZM2169.42 971.085C2168.14 971.787 2166.86 972.372 2165.61 972.849L2114.31 838.294C2109.41 840.162 2104.69 842.349 2100.15 844.839L2169.42 971.085ZM2097.65 969.077C2098.68 969.164 2098.66 969.265 2097.85 969.008C2096.96 968.73 2094.77 967.912 2092.11 965.951L2177.46 849.972C2153.11 832.057 2126.98 827.038 2109.75 825.586L2097.65 969.077ZM2067.46 974.732C2071.79 973.16 2077.77 971.398 2084.05 970.234C2090.57 969.023 2095.21 968.872 2097.65 969.077L2109.75 825.586C2073.38 822.521 2038.03 832.219 2018.32 839.375L2067.46 974.732ZM2001 1088.83C2001 1013.76 2049.59 981.118 2067.12 974.854L2018.66 839.253C1956.61 861.427 1857 940.377 1857 1088.83L2001 1088.83ZM2021.85 1176.3C2013.56 1166.92 2001 1145.06 2001 1088.83L1857 1088.83C1857 1165.3 1874.14 1226.64 1913.98 1271.69L2021.85 1176.3ZM2063.39 1199.15C2042.09 1191.36 2030.55 1186.13 2021.85 1176.3L1913.98 1271.69C1949.5 1311.85 1993.92 1327.08 2013.95 1334.4L2063.39 1199.15ZM2063.47 1199.18L2063.46 1199.18L2013.87 1334.37L2013.88 1334.38L2063.47 1199.18ZM2067.69 1200.73C2066.23 1200.19 2064.76 1199.65 2063.4 1199.16L2013.96 1334.4C2015.36 1334.92 2016.6 1335.37 2017.78 1335.8L2067.69 1200.73ZM2100.82 1199.07C2090.4 1203.04 2077.85 1204.48 2067.69 1200.73L2017.78 1335.8C2072.16 1355.89 2122.83 1344.79 2152.12 1333.62L2100.82 1199.07ZM2097.02 1200.83C2098.3 1200.13 2099.57 1199.55 2100.82 1199.07L2152.12 1333.62C2157.02 1331.76 2161.75 1329.57 2166.28 1327.08L2097.02 1200.83ZM2168.78 1202.84C2167.75 1202.75 2167.77 1202.65 2168.58 1202.91C2169.47 1203.19 2171.66 1204.01 2174.33 1205.97L2088.97 1321.95C2113.32 1339.86 2139.46 1344.88 2156.69 1346.33L2168.78 1202.84ZM2198.98 1197.19C2194.65 1198.76 2188.66 1200.52 2182.39 1201.68C2175.86 1202.89 2171.22 1203.05 2168.78 1202.84L2156.69 1346.33C2193.05 1349.4 2228.4 1339.7 2248.11 1332.54L2198.98 1197.19ZM2265.43 1083.09C2265.43 1158.16 2216.84 1190.8 2199.32 1197.06L2247.77 1332.67C2309.82 1310.49 2409.43 1231.54 2409.43 1083.09H2265.43ZM2244.58 995.623C2252.87 1005 2265.43 1026.86 2265.43 1083.09H2409.43C2409.43 1006.62 2392.29 945.281 2352.45 900.226L2244.58 995.623ZM2203.04 972.765C2224.35 980.554 2235.88 985.789 2244.58 995.623L2352.45 900.226C2316.93 860.064 2272.51 844.842 2252.48 837.52L2203.04 972.765ZM2198.75 971.19C2200.2 971.727 2201.67 972.266 2203.04 972.765L2252.48 837.52C2251.07 837.004 2249.84 836.552 2248.65 836.115L2198.75 971.19ZM2165.61 972.849C2176.03 968.876 2188.59 967.436 2198.75 971.19L2248.65 836.115C2194.28 816.023 2143.6 827.13 2114.31 838.295L2165.61 972.849ZM2203.51 1050.43C2174.79 1050.06 2151.81 1026.48 2152.18 997.767L2296.17 999.622C2296.82 948.816 2256.17 907.099 2205.36 906.445L2203.51 1050.43ZM2256.17 999.107C2255.8 1027.82 2232.22 1050.8 2203.51 1050.43L2205.36 906.445C2154.56 905.79 2112.84 946.446 2112.18 997.251L2256.17 999.107ZM2259.75 1011.36C2258.85 1010.06 2257.84 1008.01 2257.08 1005.21C2256.3 1002.31 2256.16 999.929 2256.17 999.107L2112.18 997.252C2111.85 1023.05 2118.26 1060.22 2141.66 1093.76L2259.75 1011.36ZM2270.7 1014.72C2264.66 1014.72 2262.21 1013.48 2261.73 1013.23C2261.16 1012.93 2260.53 1012.48 2259.75 1011.36L2141.66 1093.76C2168.51 1132.23 2213.17 1158.72 2270.7 1158.72V1014.72ZM2218.7 1066.72C2218.7 1038 2241.98 1014.72 2270.7 1014.72V1158.72C2321.51 1158.72 2362.7 1117.53 2362.7 1066.72H2218.7ZM2270.7 1118.72C2241.98 1118.72 2218.7 1095.44 2218.7 1066.72H2362.7C2362.7 1015.91 2321.51 974.719 2270.7 974.719V1118.72ZM2174.46 1070.87C2193.97 1098.82 2226.48 1118.72 2270.7 1118.72V974.719C2270.34 974.719 2274.44 974.722 2280.34 977.827C2286.33 980.976 2290.34 985.298 2292.55 988.464L2174.46 1070.87ZM2152.18 997.767C2151.93 1017.35 2156.95 1045.77 2174.46 1070.87L2292.55 988.464C2294.8 991.687 2295.5 994.042 2295.7 994.77C2295.83 995.275 2295.94 995.79 2296.01 996.393C2296.09 996.953 2296.19 998.01 2296.17 999.622L2152.18 997.767ZM2020.01 1158.16C2021.22 1159.18 2022.73 1160.9 2024.18 1163.41C2025.69 1166.01 2026.44 1168.27 2026.64 1169.07L2166.2 1133.59C2159.84 1108.59 2144.04 1074.34 2112.75 1048L2020.01 1158.16ZM2008.57 1157.75C2014.4 1156.18 2017.09 1156.74 2017.61 1156.86C2018.25 1157.01 2018.96 1157.28 2020.01 1158.16L2112.75 1048C2076.86 1017.79 2026.87 1003.76 1971.3 1018.65L2008.57 1157.75ZM2045.34 1094.06C2052.77 1121.8 2036.31 1150.31 2008.57 1157.75L1971.3 1018.65C1922.22 1031.81 1893.09 1082.25 1906.24 1131.33L2045.34 1094.06ZM1981.65 1057.29C2009.39 1049.86 2037.9 1066.32 2045.34 1094.06L1906.24 1131.33C1919.39 1180.41 1969.84 1209.54 2018.92 1196.38L1981.65 1057.29ZM2086.99 1078.6C2060.92 1056.66 2024.36 1045.85 1981.65 1057.29L2018.92 1196.38C2019.27 1196.29 2015.31 1197.35 2008.8 1195.88C2002.2 1194.39 1997.21 1191.25 1994.25 1188.76L2086.99 1078.6ZM2127.43 1143.45C2122.61 1124.46 2110.41 1098.31 2086.99 1078.6L1994.25 1188.76C1991.24 1186.23 1989.96 1184.14 1989.58 1183.49C1989.32 1183.03 1989.09 1182.56 1988.86 1182C1988.64 1181.48 1988.27 1180.48 1987.87 1178.92L2127.43 1143.45ZM2064.23 1105.86C2092.06 1098.79 2120.36 1115.61 2127.43 1143.45L1987.87 1178.92C2000.39 1228.17 2050.46 1257.94 2099.7 1245.42L2064.23 1105.86ZM2026.64 1169.07C2019.56 1141.23 2036.39 1112.94 2064.22 1105.86L2099.7 1245.42C2148.94 1232.91 2178.72 1182.84 2166.2 1133.59L2026.64 1169.07Z" fill="white" mask="url(#path-1-inside-1_758_90)"/>
<rect x="1717" y="671" width="837" height="830" rx="80" stroke="white" stroke-width="72"/>
<path d="M2349.5 675.5V431.5" stroke="white" stroke-width="72"/>
<path d="M2306.5 1501L2306.5 1991" stroke="white" stroke-width="72"/>
<path d="M1949.5 1501L1949.5 2241" stroke="white" stroke-width="72"/>
<path d="M1949.5 675.5L1950 323" stroke="white" stroke-width="72"/>
<path d="M840 983.5L573.5 697" stroke="white" stroke-width="72"/>
<path d="M1487 991.5L946.5 451" stroke="white" stroke-width="72"/>
<path d="M1757.5 686L1343.5 272" stroke="white" stroke-width="72"/>
<circle cx="2349.5" cy="293.5" r="138.5" stroke="white" stroke-width="72"/>
<path d="M2307 1715.5H2726" stroke="white" stroke-width="72"/>
<path d="M2554 1266.5H2933" stroke="white" stroke-width="72"/>
<path d="M2554 836.5H2793" stroke="white" stroke-width="72"/>
<path d="M1717 989.5L314 989.5" stroke="white" stroke-width="72"/>
<path d="M1717 1255.5L591 1255.5" stroke="white" stroke-width="72"/>
<path d="M965 1599L1588.42 1599C1609.31 1599 1629.37 1590.83 1644.31 1576.24L1748 1475" stroke="white" stroke-width="72"/>
<path d="M1949 1870.96L1688 1870.5" stroke="white" stroke-width="72"/>
<circle cx="2864.5" cy="1715.5" r="138.5" transform="rotate(90 2864.5 1715.5)" stroke="white" stroke-width="72"/>
<circle cx="3071.5" cy="1266.5" r="138.5" transform="rotate(90 3071.5 1266.5)" stroke="white" stroke-width="72"/>
<circle cx="2932.5" cy="836.5" r="138.5" transform="rotate(90 2932.5 836.5)" stroke="white" stroke-width="72"/>
<circle cx="174.5" cy="989.5" r="138.5" transform="rotate(-90 174.5 989.5)" stroke="white" stroke-width="72"/>
<circle cx="452.5" cy="1255.5" r="138.5" transform="rotate(-90 452.5 1255.5)" stroke="white" stroke-width="72"/>
<circle cx="826.5" cy="1598.5" r="138.5" transform="rotate(-90 826.5 1598.5)" stroke="white" stroke-width="72"/>
<circle cx="1549.5" cy="1870.5" r="138.5" transform="rotate(-90 1549.5 1870.5)" stroke="white" stroke-width="72"/>
<circle cx="2306.5" cy="2129.5" r="138.5" transform="rotate(-180 2306.5 2129.5)" stroke="white" stroke-width="72"/>
<circle cx="1949.5" cy="2379.5" r="138.5" transform="rotate(-180 1949.5 2379.5)" stroke="white" stroke-width="72"/>
<circle cx="1949.5" cy="174.5" r="138.5" stroke="white" stroke-width="72"/>
<circle cx="472.5" cy="599.5" r="138.5" stroke="white" stroke-width="72"/>
<circle cx="845.5" cy="353.5" r="138.5" stroke="white" stroke-width="72"/>
<circle cx="1242.5" cy="174.5" r="138.5" stroke="white" stroke-width="72"/>
</svg>
