<svg width="4266" height="3354" viewBox="0 0 4266 3354" fill="none" xmlns="http://www.w3.org/2000/svg">
<rect width="4266" height="3354" rx="24" fill="white" fill-opacity="0.2"/>
<mask id="path-2-inside-1_758_90" fill="white">
<path fill-rule="evenodd" clip-rule="evenodd" d="M2363 1182C2349.75 1182 2339 1192.75 2339 1206V1766C2339 1779.25 2349.75 1790 2363 1790H2928C2941.25 1790 2952 1779.25 2952 1766V1206C2952 1192.75 2941.25 1182 2928 1182H2363ZM2664.21 1342.95C2678.8 1337.39 2699.84 1333.78 2719.84 1341.17C2720.4 1341.38 2720.96 1341.59 2721.52 1341.79L2722.27 1342.07C2744.14 1350.14 2763.33 1357.21 2778.55 1374.42C2793.86 1391.73 2807.43 1422.37 2807.43 1483.09C2807.43 1574.57 2747.38 1617.46 2720.05 1627.21L2719.99 1627.23L2719.94 1627.25C2707.22 1631.87 2689.42 1635.85 2676.09 1634.73C2669.51 1634.17 2666.31 1632.56 2665.04 1631.49L2665.02 1631.47C2664.66 1631.17 2663.81 1630.46 2663.34 1628.2C2663.4 1627.2 2663.43 1626.21 2663.43 1625.22V1574.53C2680.6 1565.68 2688.13 1566.26 2690.63 1566.96C2693.03 1567.64 2695.99 1569.78 2701.37 1579.36C2706.77 1589 2718.95 1592.44 2728.59 1587.04C2738.23 1581.64 2741.66 1569.45 2736.26 1559.81C2730.51 1549.54 2720.72 1533.88 2701.47 1528.46C2689.82 1525.18 2677.19 1526.32 2663.43 1531.02V1414.3C2663.53 1413.17 2663.53 1412.02 2663.43 1410.87V1347.52C2663.43 1346.45 2663.41 1345.4 2663.35 1344.36C2663.48 1343.98 2663.63 1343.67 2663.76 1343.45C2663.93 1343.17 2664.06 1343.05 2664.1 1343.01C2664.13 1342.98 2664.15 1342.97 2664.21 1342.95ZM2623 1624.4V1443.71C2610.66 1447.4 2599.24 1448.08 2588.64 1445.09C2569.39 1439.67 2559.6 1424.01 2553.84 1413.74C2548.44 1404.1 2551.88 1391.91 2561.51 1386.52C2571.15 1381.12 2583.34 1384.55 2588.74 1394.19C2594.11 1403.78 2597.08 1405.91 2599.48 1406.59C2601.79 1407.24 2608.41 1407.79 2623 1400.84V1346.69C2623 1345.71 2623.03 1344.72 2623.1 1343.72C2622.62 1341.46 2621.77 1340.74 2621.41 1340.45L2621.39 1340.43C2620.12 1339.36 2616.93 1337.75 2610.34 1337.19C2597.01 1336.07 2579.21 1340.05 2566.49 1344.67L2566.44 1344.69L2566.38 1344.71C2539.05 1354.46 2479 1397.35 2479 1488.83C2479 1549.54 2492.57 1580.18 2507.88 1597.49C2523.1 1614.71 2542.29 1621.78 2564.16 1629.85L2564.17 1629.85C2564.97 1630.15 2565.78 1630.44 2566.59 1630.74C2586.6 1638.14 2607.63 1634.53 2622.22 1628.97C2622.28 1628.95 2622.3 1628.93 2622.33 1628.91C2622.38 1628.87 2622.5 1628.75 2622.67 1628.47C2622.81 1628.24 2622.95 1627.94 2623.08 1627.56C2623.03 1626.52 2623 1625.46 2623 1624.4ZM2649.96 1305.57C2648.14 1306.27 2646.41 1307.07 2644.78 1307.96C2635.16 1300.88 2623.73 1298.18 2613.7 1297.33C2592.15 1295.52 2568.1 1301.53 2552.89 1307.05C2513.1 1321.27 2439 1377.07 2439 1488.83C2439 1555.18 2453.85 1596.78 2477.92 1623.99C2500.03 1648.99 2528 1659.22 2548.67 1666.78L2548.68 1666.78C2550.06 1667.29 2551.42 1667.78 2552.73 1668.27C2585 1680.19 2616.62 1673.92 2636.47 1666.35C2638.3 1665.65 2640.02 1664.85 2641.65 1663.96C2651.28 1671.04 2662.71 1673.74 2672.73 1674.59C2694.28 1676.4 2718.33 1670.39 2733.54 1664.86C2773.33 1650.65 2847.43 1594.85 2847.43 1483.09C2847.43 1416.74 2832.58 1375.14 2808.51 1347.92C2786.41 1322.93 2758.43 1312.7 2737.76 1305.14C2736.37 1304.64 2735.02 1304.14 2733.7 1303.65C2701.43 1291.73 2669.81 1298 2649.96 1305.57ZM2734.18 1398.69C2734.32 1387.65 2725.48 1378.58 2714.43 1378.44C2703.39 1378.3 2694.32 1387.13 2694.18 1398.18C2693.99 1412.7 2697.85 1434.14 2710.71 1452.56C2724.31 1472.06 2747.09 1486.72 2780.7 1486.72C2791.74 1486.72 2800.7 1477.76 2800.7 1466.72C2800.7 1455.67 2791.74 1446.72 2780.7 1446.72C2760.38 1446.72 2749.76 1438.62 2743.51 1429.67C2736.51 1419.64 2734.07 1406.94 2734.18 1398.69ZM2606.42 1551.33C2602.84 1537.26 2593.56 1517.55 2576.38 1503.08C2558.19 1487.77 2532.39 1479.5 2499.93 1488.2C2489.26 1491.06 2482.93 1502.03 2485.79 1512.7C2488.65 1523.37 2499.61 1529.7 2510.28 1526.84C2529.91 1521.58 2542.27 1526.65 2550.62 1533.68C2559.98 1541.56 2565.62 1553.2 2567.65 1561.18C2570.37 1571.89 2581.26 1578.36 2591.96 1575.64C2602.67 1572.92 2609.14 1562.04 2606.42 1551.33Z"/>
</mask>
<path fill-rule="evenodd" clip-rule="evenodd" d="M2363 1182C2349.75 1182 2339 1192.75 2339 1206V1766C2339 1779.25 2349.75 1790 2363 1790H2928C2941.25 1790 2952 1779.25 2952 1766V1206C2952 1192.75 2941.25 1182 2928 1182H2363ZM2664.21 1342.95C2678.8 1337.39 2699.84 1333.78 2719.84 1341.17C2720.4 1341.38 2720.96 1341.59 2721.52 1341.79L2722.27 1342.07C2744.14 1350.14 2763.33 1357.21 2778.55 1374.42C2793.86 1391.73 2807.43 1422.37 2807.43 1483.09C2807.43 1574.57 2747.38 1617.46 2720.05 1627.21L2719.99 1627.23L2719.94 1627.25C2707.22 1631.87 2689.42 1635.85 2676.09 1634.73C2669.51 1634.17 2666.31 1632.56 2665.04 1631.49L2665.02 1631.47C2664.66 1631.17 2663.81 1630.46 2663.34 1628.2C2663.4 1627.2 2663.43 1626.21 2663.43 1625.22V1574.53C2680.6 1565.68 2688.13 1566.26 2690.63 1566.96C2693.03 1567.64 2695.99 1569.78 2701.37 1579.36C2706.77 1589 2718.95 1592.44 2728.59 1587.04C2738.23 1581.64 2741.66 1569.45 2736.26 1559.81C2730.51 1549.54 2720.72 1533.88 2701.47 1528.46C2689.82 1525.18 2677.19 1526.32 2663.43 1531.02V1414.3C2663.53 1413.17 2663.53 1412.02 2663.43 1410.87V1347.52C2663.43 1346.45 2663.41 1345.4 2663.35 1344.36C2663.48 1343.98 2663.63 1343.67 2663.76 1343.45C2663.93 1343.17 2664.06 1343.05 2664.1 1343.01C2664.13 1342.98 2664.15 1342.97 2664.21 1342.95ZM2623 1624.4V1443.71C2610.66 1447.4 2599.24 1448.08 2588.64 1445.09C2569.39 1439.67 2559.6 1424.01 2553.84 1413.74C2548.44 1404.1 2551.88 1391.91 2561.51 1386.52C2571.15 1381.12 2583.34 1384.55 2588.74 1394.19C2594.11 1403.78 2597.08 1405.91 2599.48 1406.59C2601.79 1407.24 2608.41 1407.79 2623 1400.84V1346.69C2623 1345.71 2623.03 1344.72 2623.1 1343.72C2622.62 1341.46 2621.77 1340.74 2621.41 1340.45L2621.39 1340.43C2620.12 1339.36 2616.93 1337.75 2610.34 1337.19C2597.01 1336.07 2579.21 1340.05 2566.49 1344.67L2566.44 1344.69L2566.38 1344.71C2539.05 1354.46 2479 1397.35 2479 1488.83C2479 1549.54 2492.57 1580.18 2507.88 1597.49C2523.1 1614.71 2542.29 1621.78 2564.16 1629.85L2564.17 1629.85C2564.97 1630.15 2565.78 1630.44 2566.59 1630.74C2586.6 1638.14 2607.63 1634.53 2622.22 1628.97C2622.28 1628.95 2622.3 1628.93 2622.33 1628.91C2622.38 1628.87 2622.5 1628.75 2622.67 1628.47C2622.81 1628.24 2622.95 1627.94 2623.08 1627.56C2623.03 1626.52 2623 1625.46 2623 1624.4ZM2649.96 1305.57C2648.14 1306.27 2646.41 1307.07 2644.78 1307.96C2635.16 1300.88 2623.73 1298.18 2613.7 1297.33C2592.15 1295.52 2568.1 1301.53 2552.89 1307.05C2513.1 1321.27 2439 1377.07 2439 1488.83C2439 1555.18 2453.85 1596.78 2477.92 1623.99C2500.03 1648.99 2528 1659.22 2548.67 1666.78L2548.68 1666.78C2550.06 1667.29 2551.42 1667.78 2552.73 1668.27C2585 1680.19 2616.62 1673.92 2636.47 1666.35C2638.3 1665.65 2640.02 1664.85 2641.65 1663.96C2651.28 1671.04 2662.71 1673.74 2672.73 1674.59C2694.28 1676.4 2718.33 1670.39 2733.54 1664.86C2773.33 1650.65 2847.43 1594.85 2847.43 1483.09C2847.43 1416.74 2832.58 1375.14 2808.51 1347.92C2786.41 1322.93 2758.43 1312.7 2737.76 1305.14C2736.37 1304.64 2735.02 1304.14 2733.7 1303.65C2701.43 1291.73 2669.81 1298 2649.96 1305.57ZM2734.18 1398.69C2734.32 1387.65 2725.48 1378.58 2714.43 1378.44C2703.39 1378.3 2694.32 1387.13 2694.18 1398.18C2693.99 1412.7 2697.85 1434.14 2710.71 1452.56C2724.31 1472.06 2747.09 1486.72 2780.7 1486.72C2791.74 1486.72 2800.7 1477.76 2800.7 1466.72C2800.7 1455.67 2791.74 1446.72 2780.7 1446.72C2760.38 1446.72 2749.76 1438.62 2743.51 1429.67C2736.51 1419.64 2734.07 1406.94 2734.18 1398.69ZM2606.42 1551.33C2602.84 1537.26 2593.56 1517.55 2576.38 1503.08C2558.19 1487.77 2532.39 1479.5 2499.93 1488.2C2489.26 1491.06 2482.93 1502.03 2485.79 1512.7C2488.65 1523.37 2499.61 1529.7 2510.28 1526.84C2529.91 1521.58 2542.27 1526.65 2550.62 1533.68C2559.98 1541.56 2565.62 1553.2 2567.65 1561.18C2570.37 1571.89 2581.26 1578.36 2591.96 1575.64C2602.67 1572.92 2609.14 1562.04 2606.42 1551.33Z" fill="white"/>
<path d="M2719.84 1341.17L2744.79 1273.64L2744.79 1273.64L2719.84 1341.17ZM2664.21 1342.95L2638.56 1275.67L2638.55 1275.67L2664.21 1342.95ZM2721.52 1341.79L2696.61 1409.35L2696.61 1409.35L2721.52 1341.79ZM2722.27 1342.07L2697.36 1409.62L2697.36 1409.62L2722.27 1342.07ZM2778.55 1374.42L2832.49 1326.73L2832.49 1326.73L2778.55 1374.42ZM2720.05 1627.21L2695.86 1559.39L2695.85 1559.4L2720.05 1627.21ZM2719.99 1627.23L2695.8 1559.42L2695.6 1559.49L2695.41 1559.56L2719.99 1627.23ZM2719.94 1627.25L2695.35 1559.58L2695.34 1559.58L2719.94 1627.25ZM2676.09 1634.73L2682.14 1562.98L2682.14 1562.98L2676.09 1634.73ZM2665.04 1631.49L2711.42 1576.42L2711.38 1576.39L2711.35 1576.36L2665.04 1631.49ZM2665.02 1631.47L2711.32 1576.34L2711.3 1576.32L2711.28 1576.3L2665.02 1631.47ZM2663.34 1628.2L2591.48 1623.6L2590.86 1633.41L2592.88 1643.03L2663.34 1628.2ZM2663.43 1574.53L2630.44 1510.53L2591.43 1530.64V1574.53H2663.43ZM2690.63 1566.96L2671.11 1636.27L2671.11 1636.27L2690.63 1566.96ZM2701.37 1579.36L2764.18 1544.17L2764.18 1544.17L2701.37 1579.36ZM2728.59 1587.04L2763.78 1649.85L2763.78 1649.85L2728.59 1587.04ZM2736.26 1559.81L2799.07 1524.62L2799.07 1524.62L2736.26 1559.81ZM2701.47 1528.46L2720.98 1459.15L2720.98 1459.15L2701.47 1528.46ZM2663.43 1531.02H2591.43V1631.75L2686.74 1599.15L2663.43 1531.02ZM2663.43 1414.3L2591.7 1408.12L2591.43 1411.21V1414.3H2663.43ZM2663.43 1410.87H2591.43V1413.97L2591.7 1417.06L2663.43 1410.87ZM2663.35 1344.36L2595.04 1321.63L2590.77 1334.45L2591.44 1347.94L2663.35 1344.36ZM2663.76 1343.45L2602.09 1306.29L2602.09 1306.3L2663.76 1343.45ZM2664.1 1343.01L2711.1 1397.56L2711.11 1397.55L2664.1 1343.01ZM2623 1443.71H2695V1346.98L2602.34 1374.73L2623 1443.71ZM2588.64 1445.09L2608.15 1375.79L2608.15 1375.79L2588.64 1445.09ZM2553.84 1413.74L2616.65 1378.55L2616.65 1378.55L2553.84 1413.74ZM2561.51 1386.52L2526.32 1323.7L2526.32 1323.7L2561.51 1386.52ZM2588.74 1394.19L2651.55 1358.99L2651.55 1358.99L2588.74 1394.19ZM2599.48 1406.59L2618.99 1337.28L2618.99 1337.28L2599.48 1406.59ZM2623 1400.84L2653.94 1465.86L2695 1446.32V1400.84H2623ZM2623.1 1343.72L2694.95 1348.32L2695.58 1338.51L2693.55 1328.89L2623.1 1343.72ZM2621.41 1340.45L2575.11 1395.59L2575.14 1395.6L2575.16 1395.62L2621.41 1340.45ZM2621.39 1340.43L2575.01 1395.5L2575.05 1395.53L2575.09 1395.57L2621.39 1340.43ZM2610.34 1337.19L2616.39 1265.44L2616.39 1265.44L2610.34 1337.19ZM2566.49 1344.67L2591.09 1412.34L2591.09 1412.34L2566.49 1344.67ZM2566.44 1344.69L2590.63 1412.5L2590.83 1412.43L2591.03 1412.36L2566.44 1344.69ZM2566.38 1344.71L2590.57 1412.52L2590.57 1412.52L2566.38 1344.71ZM2507.88 1597.49L2561.81 1549.8L2561.81 1549.8L2507.88 1597.49ZM2564.16 1629.85L2539.25 1697.4L2539.29 1697.42L2539.33 1697.43L2564.16 1629.85ZM2564.17 1629.85L2589.08 1562.3L2589.04 1562.28L2589 1562.27L2564.17 1629.85ZM2566.59 1630.74L2591.55 1563.21L2591.55 1563.21L2566.59 1630.74ZM2622.22 1628.97L2596.59 1561.69L2596.58 1561.69L2596.58 1561.69L2622.22 1628.97ZM2622.33 1628.91L2575.35 1574.35L2575.33 1574.36L2575.31 1574.38L2622.33 1628.91ZM2622.67 1628.47L2560.99 1591.32L2560.99 1591.33L2622.67 1628.47ZM2623.08 1627.56L2691.4 1650.29L2695.66 1637.47L2694.99 1623.98L2623.08 1627.56ZM2644.78 1307.96L2602.11 1365.95L2639.12 1393.19L2679.42 1371.08L2644.78 1307.96ZM2649.96 1305.57L2675.61 1372.85L2675.61 1372.85L2649.96 1305.57ZM2613.7 1297.33L2619.75 1225.59L2619.75 1225.59L2613.7 1297.33ZM2552.89 1307.05L2577.12 1374.85L2577.29 1374.79L2577.46 1374.73L2552.89 1307.05ZM2439 1488.83L2511 1488.83L2511 1488.83L2439 1488.83ZM2477.92 1623.99L2423.98 1671.69L2423.98 1671.69L2477.92 1623.99ZM2548.67 1666.78L2573.46 1599.18L2573.43 1599.17L2573.39 1599.15L2548.67 1666.78ZM2548.68 1666.78L2523.88 1734.38L2523.92 1734.39L2523.96 1734.4L2548.68 1666.78ZM2552.73 1668.27L2527.78 1735.8L2527.78 1735.8L2552.73 1668.27ZM2636.47 1666.35L2662.12 1733.62L2662.12 1733.62L2636.47 1666.35ZM2641.65 1663.96L2684.33 1605.97L2647.31 1578.73L2607.02 1600.83L2641.65 1663.96ZM2672.73 1674.59L2678.78 1602.84L2678.78 1602.84L2672.73 1674.59ZM2733.54 1664.86L2709.32 1597.06L2709.15 1597.12L2708.98 1597.19L2733.54 1664.86ZM2808.51 1347.92L2754.58 1395.62L2754.58 1395.62L2808.51 1347.92ZM2737.76 1305.14L2762.48 1237.52L2762.48 1237.52L2737.76 1305.14ZM2733.7 1303.65L2758.65 1236.11L2758.65 1236.11L2733.7 1303.65ZM2734.18 1398.69L2662.18 1397.77L2662.18 1397.77L2734.18 1398.69ZM2694.18 1398.18L2622.18 1397.25L2622.18 1397.25L2694.18 1398.18ZM2710.71 1452.56L2769.75 1411.36L2769.75 1411.36L2710.71 1452.56ZM2743.51 1429.67L2684.46 1470.87L2684.46 1470.87L2743.51 1429.67ZM2576.38 1503.08L2622.75 1448L2622.75 1448L2576.38 1503.08ZM2606.42 1551.33L2536.64 1569.07L2536.64 1569.07L2606.42 1551.33ZM2499.93 1488.2L2518.57 1557.75L2518.57 1557.75L2499.93 1488.2ZM2510.28 1526.84L2528.92 1596.38L2528.92 1596.38L2510.28 1526.84ZM2550.62 1533.68L2596.99 1478.6L2596.99 1478.6L2550.62 1533.68ZM2567.65 1561.18L2637.43 1543.45L2637.43 1543.45L2567.65 1561.18ZM2591.96 1575.64L2609.7 1645.42L2609.7 1645.42L2591.96 1575.64ZM2411 1206C2411 1232.51 2389.51 1254 2363 1254V1110C2309.98 1110 2267 1152.98 2267 1206H2411ZM2411 1766V1206H2267V1766H2411ZM2363 1718C2389.51 1718 2411 1739.49 2411 1766H2267C2267 1819.02 2309.98 1862 2363 1862V1718ZM2928 1718H2363V1862H2928V1718ZM2880 1766C2880 1739.49 2901.49 1718 2928 1718V1862C2981.02 1862 3024 1819.02 3024 1766H2880ZM2880 1206V1766H3024V1206H2880ZM2928 1254C2901.49 1254 2880 1232.51 2880 1206H3024C3024 1152.98 2981.02 1110 2928 1110V1254ZM2363 1254H2928V1110H2363V1254ZM2744.79 1273.64C2702.75 1258.1 2662.69 1266.47 2638.56 1275.67L2689.86 1410.23C2690.58 1409.95 2691.5 1409.66 2692.49 1409.43C2693.49 1409.2 2694.35 1409.07 2695.03 1409.03C2696.47 1408.93 2696.21 1409.2 2694.88 1408.71L2744.79 1273.64ZM2746.43 1274.24C2745.88 1274.04 2745.34 1273.84 2744.79 1273.64L2694.88 1408.71C2695.46 1408.93 2696.04 1409.14 2696.61 1409.35L2746.43 1274.24ZM2747.18 1274.52L2746.43 1274.24L2696.61 1409.35L2697.36 1409.62L2747.18 1274.52ZM2832.49 1326.73C2803.45 1293.89 2766.64 1281.69 2747.18 1274.52L2697.36 1409.62C2709.18 1413.98 2714.96 1416.23 2719.56 1418.63C2723.1 1420.48 2724.1 1421.53 2724.62 1422.12L2832.49 1326.73ZM2879.43 1483.09C2879.43 1412.19 2863.54 1361.84 2832.49 1326.73L2724.62 1422.12C2724.86 1422.4 2727.3 1425.06 2729.86 1433.47C2732.58 1442.41 2735.43 1457.86 2735.43 1483.09H2879.43ZM2744.24 1695.03C2794.1 1677.24 2879.43 1611.04 2879.43 1483.09H2735.43C2735.43 1511.87 2726.36 1529.92 2717.45 1541.22C2712.7 1547.25 2707.61 1551.81 2703.16 1555.01C2698.44 1558.41 2695.52 1559.52 2695.86 1559.39L2744.24 1695.03ZM2744.19 1695.04L2744.25 1695.02L2695.85 1559.4L2695.8 1559.42L2744.19 1695.04ZM2744.52 1694.92L2744.58 1694.9L2695.41 1559.56L2695.35 1559.58L2744.52 1694.92ZM2670.05 1706.47C2698.22 1708.85 2727.34 1701.17 2744.53 1694.92L2695.34 1559.58C2692.56 1560.59 2688.76 1561.67 2685.09 1562.36C2683.34 1562.68 2682.04 1562.84 2681.27 1562.89C2680.41 1562.96 2680.77 1562.87 2682.14 1562.98L2670.05 1706.47ZM2618.67 1686.57C2635.74 1700.95 2655.65 1705.26 2670.05 1706.47L2682.14 1562.98C2683.58 1563.1 2687.04 1563.53 2691.78 1565.14C2696.14 1566.63 2703.55 1569.79 2711.42 1576.42L2618.67 1686.57ZM2618.71 1686.61L2618.74 1686.63L2711.35 1576.36L2711.32 1576.34L2618.71 1686.61ZM2592.88 1643.03C2594.6 1651.21 2597.8 1660.29 2603.46 1669.19C2609.59 1678.84 2616.39 1684.66 2618.76 1686.64L2711.28 1576.3C2711.21 1576.24 2712.06 1576.94 2713.06 1577.85C2714.13 1578.81 2715.42 1580.03 2716.82 1581.51C2719.71 1584.54 2722.49 1588.01 2724.99 1591.95C2730.01 1599.85 2732.55 1607.45 2733.79 1613.37L2592.88 1643.03ZM2591.43 1625.22C2591.43 1624.66 2591.45 1624.12 2591.48 1623.6L2735.19 1632.8C2735.35 1630.28 2735.43 1627.76 2735.43 1625.22H2591.43ZM2591.43 1574.53V1625.22H2735.43V1574.53H2591.43ZM2710.14 1497.66C2681.61 1489.63 2653.75 1498.51 2630.44 1510.53L2696.43 1638.52C2700.92 1636.2 2700.69 1636.95 2696.73 1637.75C2692.6 1638.58 2683.22 1639.68 2671.11 1636.27L2710.14 1497.66ZM2764.18 1544.17C2758.27 1533.63 2743.01 1506.91 2710.14 1497.66L2671.11 1636.27C2665.41 1634.66 2659.53 1632.16 2653.91 1628.58C2648.62 1625.21 2644.87 1621.73 2642.49 1619.21C2638.35 1614.81 2637.07 1611.92 2638.55 1614.56L2764.18 1544.17ZM2693.4 1524.22C2718.45 1510.19 2750.14 1519.12 2764.18 1544.17L2638.55 1614.56C2663.39 1658.88 2719.46 1674.68 2763.78 1649.85L2693.4 1524.22ZM2673.45 1595.01C2659.41 1569.95 2668.34 1538.26 2693.4 1524.22L2763.78 1649.85C2808.11 1625.01 2823.91 1568.95 2799.07 1524.62L2673.45 1595.01ZM2681.95 1597.77C2679.46 1597.06 2677.17 1595.98 2675.25 1594.74C2673.4 1593.55 2672.23 1592.44 2671.68 1591.86C2671.16 1591.31 2671.1 1591.14 2671.47 1591.69C2671.86 1592.26 2672.42 1593.18 2673.45 1595.01L2799.07 1524.62C2792.59 1513.04 2770.51 1473.1 2720.98 1459.15L2681.95 1597.77ZM2686.74 1599.15C2689.01 1598.37 2689.48 1598.48 2688.49 1598.55C2687.32 1598.64 2684.94 1598.61 2681.95 1597.77L2720.98 1459.15C2691.2 1450.77 2663.09 1455.04 2640.13 1462.9L2686.74 1599.15ZM2591.43 1414.3V1531.02H2735.43V1414.3H2591.43ZM2591.7 1417.06C2591.44 1414.06 2591.44 1411.07 2591.7 1408.12L2735.17 1420.48C2735.62 1415.26 2735.62 1409.97 2735.16 1404.68L2591.7 1417.06ZM2591.43 1347.52V1410.87H2735.43V1347.52H2591.43ZM2591.44 1347.94C2591.43 1347.76 2591.43 1347.62 2591.43 1347.52H2735.43C2735.43 1345.29 2735.38 1343.04 2735.27 1340.78L2591.44 1347.94ZM2602.09 1306.3C2598.91 1311.57 2596.64 1316.8 2595.04 1321.63L2731.67 1367.09C2730.32 1371.17 2728.34 1375.78 2725.44 1380.59L2602.09 1306.3ZM2617.1 1288.47C2610.97 1293.75 2605.98 1299.84 2602.09 1306.29L2725.44 1380.6C2721.88 1386.5 2717.15 1392.34 2711.1 1397.56L2617.1 1288.47ZM2638.55 1275.67C2630.65 1278.69 2623.42 1283.02 2617.09 1288.47L2711.11 1397.55C2709.98 1398.52 2706.33 1401.65 2701.06 1404.79C2696.05 1407.78 2691.78 1409.49 2689.87 1410.22L2638.55 1275.67ZM2551 1443.71V1624.4H2695V1443.71H2551ZM2569.12 1514.4C2596.19 1522.02 2621.96 1519.18 2643.66 1512.68L2602.34 1374.73C2600.8 1375.19 2600.76 1375.03 2601.93 1374.98C2603.23 1374.92 2605.45 1375.03 2608.15 1375.79L2569.12 1514.4ZM2491.03 1448.93C2497.52 1460.52 2519.59 1500.45 2569.12 1514.4L2608.15 1375.79C2610.64 1376.49 2612.93 1377.57 2614.86 1378.81C2616.7 1380 2617.87 1381.11 2618.42 1381.69C2618.95 1382.24 2619 1382.41 2618.63 1381.86C2618.24 1381.29 2617.68 1380.37 2616.65 1378.55L2491.03 1448.93ZM2526.32 1323.7C2481.99 1348.54 2466.19 1404.61 2491.03 1448.93L2616.65 1378.55C2630.69 1403.6 2621.76 1435.29 2596.71 1449.33L2526.32 1323.7ZM2651.55 1358.99C2626.71 1314.67 2570.65 1298.87 2526.32 1323.7L2596.71 1449.33C2571.65 1463.37 2539.96 1454.44 2525.92 1429.38L2651.55 1358.99ZM2618.99 1337.28C2624.69 1338.89 2630.57 1341.39 2636.2 1344.97C2641.49 1348.34 2645.24 1351.82 2647.61 1354.34C2651.76 1358.74 2653.03 1361.64 2651.55 1358.99L2525.92 1429.38C2531.83 1439.92 2547.09 1466.64 2579.96 1475.89L2618.99 1337.28ZM2592.06 1335.83C2589 1337.29 2590.07 1336.36 2594.4 1335.61C2598.91 1334.83 2607.78 1334.13 2618.99 1337.28L2579.96 1475.89C2606.55 1483.38 2632.45 1476.08 2653.94 1465.86L2592.06 1335.83ZM2551 1346.69V1400.84H2695V1346.69H2551ZM2551.24 1339.12C2551.08 1341.64 2551 1344.16 2551 1346.69H2695C2695 1347.25 2694.98 1347.8 2694.95 1348.32L2551.24 1339.12ZM2575.16 1395.62C2575.22 1395.68 2574.38 1394.98 2573.37 1394.07C2572.3 1393.11 2571.01 1391.88 2569.61 1390.41C2566.72 1387.38 2563.95 1383.9 2561.45 1379.97C2556.42 1372.07 2553.89 1364.47 2552.64 1358.55L2693.55 1328.89C2691.83 1320.71 2688.63 1311.62 2682.97 1302.72C2676.84 1293.08 2670.04 1287.26 2667.67 1285.27L2575.16 1395.62ZM2575.09 1395.57L2575.11 1395.59L2667.71 1285.31L2667.69 1285.29L2575.09 1395.57ZM2604.29 1408.94C2602.85 1408.81 2599.39 1408.39 2594.65 1406.77C2590.29 1405.29 2582.88 1402.13 2575.01 1395.5L2667.76 1285.35C2650.69 1270.97 2630.78 1266.66 2616.39 1265.44L2604.29 1408.94ZM2591.09 1412.34C2593.87 1411.33 2597.68 1410.24 2601.34 1409.56C2603.1 1409.24 2604.39 1409.08 2605.17 1409.02C2606.03 1408.96 2605.66 1409.05 2604.29 1408.94L2616.39 1265.44C2588.21 1263.07 2559.1 1270.75 2541.9 1277L2591.09 1412.34ZM2591.03 1412.36L2591.09 1412.34L2541.9 1277L2541.84 1277.02L2591.03 1412.36ZM2590.57 1412.52L2590.63 1412.5L2542.25 1276.87L2542.19 1276.89L2590.57 1412.52ZM2551 1488.83C2551 1460.04 2560.07 1442 2568.98 1430.7C2573.73 1424.67 2578.82 1420.11 2583.27 1416.9C2587.99 1413.5 2590.91 1412.4 2590.57 1412.52L2542.2 1276.89C2492.33 1294.68 2407 1360.87 2407 1488.83H2551ZM2561.81 1549.8C2561.57 1549.52 2559.13 1546.86 2556.57 1538.45C2553.85 1529.51 2551 1514.06 2551 1488.83H2407C2407 1559.72 2422.89 1610.07 2453.95 1645.19L2561.81 1549.8ZM2589.07 1562.29C2577.25 1557.93 2571.48 1555.69 2566.87 1553.28C2563.33 1551.44 2562.34 1550.39 2561.81 1549.8L2453.95 1645.19C2482.98 1678.02 2519.79 1690.22 2539.25 1697.4L2589.07 1562.29ZM2589 1562.27L2588.99 1562.26L2539.33 1697.43L2539.34 1697.43L2589 1562.27ZM2591.55 1563.21C2590.71 1562.9 2589.88 1562.59 2589.08 1562.3L2539.26 1697.4C2540.06 1697.7 2540.85 1697.99 2541.64 1698.28L2591.55 1563.21ZM2596.58 1561.69C2595.85 1561.97 2594.94 1562.26 2593.94 1562.49C2592.94 1562.72 2592.08 1562.84 2591.4 1562.89C2589.96 1562.99 2590.22 1562.72 2591.55 1563.21L2541.64 1698.28C2583.68 1713.82 2623.75 1705.44 2647.87 1696.25L2596.58 1561.69ZM2575.31 1574.38C2576.43 1573.41 2580.09 1570.28 2585.38 1567.12C2590.4 1564.12 2594.67 1562.42 2596.59 1561.69L2647.86 1696.25C2649.83 1695.5 2654.14 1693.78 2659.19 1690.76C2664.51 1687.59 2668.2 1684.43 2669.35 1683.43L2575.31 1574.38ZM2560.99 1591.33C2564.55 1585.42 2569.29 1579.57 2575.35 1574.35L2669.31 1683.47C2675.47 1678.17 2680.46 1672.07 2684.35 1665.62L2560.99 1591.33ZM2554.76 1604.83C2556.12 1600.75 2558.09 1596.14 2560.99 1591.32L2684.34 1665.62C2687.52 1660.35 2689.79 1655.12 2691.4 1650.29L2554.76 1604.83ZM2551 1624.4C2551 1626.63 2551.05 1628.88 2551.17 1631.14L2694.99 1623.98C2695 1624.15 2695 1624.3 2695 1624.4H2551ZM2679.42 1371.08C2678.14 1371.79 2676.86 1372.37 2675.61 1372.85L2624.31 1238.29C2619.41 1240.16 2614.69 1242.35 2610.15 1244.84L2679.42 1371.08ZM2607.65 1369.08C2608.68 1369.16 2608.66 1369.26 2607.85 1369.01C2606.96 1368.73 2604.77 1367.91 2602.11 1365.95L2687.46 1249.97C2663.11 1232.06 2636.98 1227.04 2619.75 1225.59L2607.65 1369.08ZM2577.46 1374.73C2581.79 1373.16 2587.77 1371.4 2594.05 1370.23C2600.57 1369.02 2605.21 1368.87 2607.65 1369.08L2619.75 1225.59C2583.38 1222.52 2548.03 1232.22 2528.32 1239.37L2577.46 1374.73ZM2511 1488.83C2511 1413.76 2559.59 1381.12 2577.12 1374.85L2528.66 1239.25C2466.61 1261.43 2367 1340.38 2367 1488.83L2511 1488.83ZM2531.85 1576.3C2523.56 1566.92 2511 1545.06 2511 1488.83L2367 1488.83C2367 1565.3 2384.14 1626.64 2423.98 1671.69L2531.85 1576.3ZM2573.39 1599.15C2552.09 1591.36 2540.55 1586.13 2531.85 1576.3L2423.98 1671.69C2459.5 1711.85 2503.92 1727.08 2523.95 1734.4L2573.39 1599.15ZM2573.47 1599.18L2573.46 1599.18L2523.87 1734.37L2523.88 1734.38L2573.47 1599.18ZM2577.69 1600.73C2576.23 1600.19 2574.76 1599.65 2573.4 1599.16L2523.96 1734.4C2525.36 1734.92 2526.6 1735.37 2527.78 1735.8L2577.69 1600.73ZM2610.82 1599.07C2600.4 1603.04 2587.85 1604.48 2577.69 1600.73L2527.78 1735.8C2582.16 1755.89 2632.83 1744.79 2662.12 1733.62L2610.82 1599.07ZM2607.02 1600.83C2608.3 1600.13 2609.57 1599.55 2610.82 1599.07L2662.12 1733.62C2667.02 1731.76 2671.75 1729.57 2676.28 1727.08L2607.02 1600.83ZM2678.78 1602.84C2677.75 1602.75 2677.77 1602.65 2678.58 1602.91C2679.47 1603.19 2681.66 1604.01 2684.33 1605.97L2598.97 1721.95C2623.32 1739.86 2649.46 1744.88 2666.69 1746.33L2678.78 1602.84ZM2708.98 1597.19C2704.65 1598.76 2698.66 1600.52 2692.39 1601.68C2685.86 1602.89 2681.22 1603.05 2678.78 1602.84L2666.69 1746.33C2703.05 1749.4 2738.4 1739.7 2758.11 1732.54L2708.98 1597.19ZM2775.43 1483.09C2775.43 1558.16 2726.84 1590.8 2709.32 1597.06L2757.77 1732.67C2819.82 1710.49 2919.43 1631.54 2919.43 1483.09H2775.43ZM2754.58 1395.62C2762.87 1405 2775.43 1426.86 2775.43 1483.09H2919.43C2919.43 1406.62 2902.29 1345.28 2862.45 1300.23L2754.58 1395.62ZM2713.04 1372.77C2734.35 1380.55 2745.88 1385.79 2754.58 1395.62L2862.45 1300.23C2826.93 1260.06 2782.51 1244.84 2762.48 1237.52L2713.04 1372.77ZM2708.75 1371.19C2710.2 1371.73 2711.67 1372.27 2713.04 1372.77L2762.48 1237.52C2761.07 1237 2759.84 1236.55 2758.65 1236.11L2708.75 1371.19ZM2675.61 1372.85C2686.03 1368.88 2698.59 1367.44 2708.75 1371.19L2758.65 1236.11C2704.28 1216.02 2653.6 1227.13 2624.31 1238.29L2675.61 1372.85ZM2713.51 1450.43C2684.79 1450.06 2661.81 1426.48 2662.18 1397.77L2806.17 1399.62C2806.82 1348.82 2766.17 1307.1 2715.36 1306.44L2713.51 1450.43ZM2766.17 1399.11C2765.8 1427.82 2742.22 1450.8 2713.51 1450.43L2715.36 1306.44C2664.56 1305.79 2622.84 1346.45 2622.18 1397.25L2766.17 1399.11ZM2769.75 1411.36C2768.85 1410.06 2767.84 1408.01 2767.08 1405.21C2766.3 1402.31 2766.16 1399.93 2766.17 1399.11L2622.18 1397.25C2621.85 1423.05 2628.26 1460.22 2651.66 1493.76L2769.75 1411.36ZM2780.7 1414.72C2774.66 1414.72 2772.21 1413.48 2771.73 1413.23C2771.16 1412.93 2770.53 1412.48 2769.75 1411.36L2651.66 1493.76C2678.51 1532.23 2723.17 1558.72 2780.7 1558.72V1414.72ZM2728.7 1466.72C2728.7 1438 2751.98 1414.72 2780.7 1414.72V1558.72C2831.51 1558.72 2872.7 1517.53 2872.7 1466.72H2728.7ZM2780.7 1518.72C2751.98 1518.72 2728.7 1495.44 2728.7 1466.72H2872.7C2872.7 1415.91 2831.51 1374.72 2780.7 1374.72V1518.72ZM2684.46 1470.87C2703.97 1498.82 2736.48 1518.72 2780.7 1518.72V1374.72C2780.34 1374.72 2784.44 1374.72 2790.34 1377.83C2796.33 1380.98 2800.34 1385.3 2802.55 1388.46L2684.46 1470.87ZM2662.18 1397.77C2661.93 1417.35 2666.95 1445.77 2684.46 1470.87L2802.55 1388.46C2804.8 1391.69 2805.5 1394.04 2805.7 1394.77C2805.83 1395.27 2805.94 1395.79 2806.01 1396.39C2806.09 1396.95 2806.19 1398.01 2806.17 1399.62L2662.18 1397.77ZM2530.01 1558.16C2531.22 1559.18 2532.73 1560.9 2534.18 1563.41C2535.69 1566.01 2536.44 1568.27 2536.64 1569.07L2676.2 1533.59C2669.84 1508.59 2654.04 1474.34 2622.75 1448L2530.01 1558.16ZM2518.57 1557.75C2524.4 1556.18 2527.09 1556.74 2527.61 1556.86C2528.25 1557.01 2528.96 1557.28 2530.01 1558.16L2622.75 1448C2586.86 1417.79 2536.87 1403.76 2481.3 1418.65L2518.57 1557.75ZM2555.34 1494.06C2562.77 1521.8 2546.31 1550.31 2518.57 1557.75L2481.3 1418.65C2432.22 1431.81 2403.09 1482.25 2416.24 1531.33L2555.34 1494.06ZM2491.65 1457.29C2519.39 1449.86 2547.9 1466.32 2555.34 1494.06L2416.24 1531.33C2429.39 1580.41 2479.84 1609.54 2528.92 1596.38L2491.65 1457.29ZM2596.99 1478.6C2570.92 1456.66 2534.36 1445.85 2491.65 1457.29L2528.92 1596.38C2529.27 1596.29 2525.31 1597.35 2518.8 1595.88C2512.2 1594.39 2507.21 1591.25 2504.25 1588.76L2596.99 1478.6ZM2637.43 1543.45C2632.61 1524.46 2620.41 1498.31 2596.99 1478.6L2504.25 1588.76C2501.24 1586.23 2499.96 1584.14 2499.58 1583.49C2499.32 1583.03 2499.09 1582.56 2498.86 1582C2498.64 1581.48 2498.27 1580.48 2497.87 1578.92L2637.43 1543.45ZM2574.23 1505.86C2602.06 1498.79 2630.36 1515.61 2637.43 1543.45L2497.87 1578.92C2510.39 1628.17 2560.46 1657.94 2609.7 1645.42L2574.23 1505.86ZM2536.64 1569.07C2529.56 1541.23 2546.39 1512.94 2574.22 1505.86L2609.7 1645.42C2658.94 1632.91 2688.72 1582.84 2676.2 1533.59L2536.64 1569.07Z" fill="white" mask="url(#path-2-inside-1_758_90)"/>
<rect x="2227" y="1071" width="837" height="830" rx="80" stroke="white" stroke-width="72"/>
<path d="M2859.5 1075.5V831.5" stroke="white" stroke-width="72"/>
<path d="M2816.5 1901L2816.5 2391" stroke="white" stroke-width="72"/>
<path d="M2459.5 1901L2459.5 2641" stroke="white" stroke-width="72"/>
<path d="M2459.5 1075.5L2460 723" stroke="white" stroke-width="72"/>
<path d="M1350 1383.5L1083.5 1097" stroke="white" stroke-width="72"/>
<path d="M1997 1391.5L1456.5 851" stroke="white" stroke-width="72"/>
<path d="M2267.5 1086L1853.5 672" stroke="white" stroke-width="72"/>
<circle cx="2859.5" cy="693.5" r="138.5" stroke="white" stroke-width="72"/>
<path d="M2817 2115.5H3236" stroke="white" stroke-width="72"/>
<path d="M3064 1666.5H3443" stroke="white" stroke-width="72"/>
<path d="M3064 1236.5H3303" stroke="white" stroke-width="72"/>
<path d="M2227 1389.5H824" stroke="white" stroke-width="72"/>
<path d="M2227 1655.5L1101 1655.5" stroke="white" stroke-width="72"/>
<path d="M1475 1999L2098.42 1999C2119.31 1999 2139.37 1990.83 2154.31 1976.24L2258 1875" stroke="white" stroke-width="72"/>
<path d="M2459 2270.96L2198 2270.5" stroke="white" stroke-width="72"/>
<circle cx="3374.5" cy="2115.5" r="138.5" transform="rotate(90 3374.5 2115.5)" stroke="white" stroke-width="72"/>
<circle cx="3581.5" cy="1666.5" r="138.5" transform="rotate(90 3581.5 1666.5)" stroke="white" stroke-width="72"/>
<circle cx="3442.5" cy="1236.5" r="138.5" transform="rotate(90 3442.5 1236.5)" stroke="white" stroke-width="72"/>
<circle cx="684.5" cy="1389.5" r="138.5" transform="rotate(-90 684.5 1389.5)" stroke="white" stroke-width="72"/>
<circle cx="962.5" cy="1655.5" r="138.5" transform="rotate(-90 962.5 1655.5)" stroke="white" stroke-width="72"/>
<circle cx="1336.5" cy="1998.5" r="138.5" transform="rotate(-90 1336.5 1998.5)" stroke="white" stroke-width="72"/>
<circle cx="2059.5" cy="2270.5" r="138.5" transform="rotate(-90 2059.5 2270.5)" stroke="white" stroke-width="72"/>
<circle cx="2816.5" cy="2529.5" r="138.5" transform="rotate(-180 2816.5 2529.5)" stroke="white" stroke-width="72"/>
<circle cx="2459.5" cy="2779.5" r="138.5" transform="rotate(-180 2459.5 2779.5)" stroke="white" stroke-width="72"/>
<circle cx="2459.5" cy="574.5" r="138.5" stroke="white" stroke-width="72"/>
<circle cx="982.5" cy="999.5" r="138.5" stroke="white" stroke-width="72"/>
<circle cx="1355.5" cy="753.5" r="138.5" stroke="white" stroke-width="72"/>
<circle cx="1752.5" cy="574.5" r="138.5" stroke="white" stroke-width="72"/>
</svg>
