<svg width="192" height="192" viewBox="0 0 192 192" fill="none" xmlns="http://www.w3.org/2000/svg">
<g clip-path="url(#clip0_1404_59)">
<path d="M33.309 132.285C26.0192 139.574 26.0192 151.393 33.309 158.683C40.5987 165.973 52.4178 165.973 59.7076 158.683C66.9974 151.393 66.9974 139.574 59.7076 132.285C52.4178 124.995 40.5987 124.995 33.309 132.285ZM132.293 33.3007C125.003 40.5905 125.003 52.4095 132.293 59.6993C139.583 66.9891 151.402 66.9891 158.692 59.6993C165.981 52.4095 165.981 40.5905 158.692 33.3007C151.402 26.0109 139.583 26.0109 132.293 33.3007ZM46.5083 145.484L48.9832 147.959L147.967 48.9749L145.492 46.5L143.017 44.0251L44.0334 143.009L46.5083 145.484Z" fill="white"/>
<path d="M26.0156 77.3255C15.7063 77.3255 7.34895 85.6829 7.34895 95.9922C7.34895 106.301 15.7063 114.659 26.0156 114.659C36.3249 114.659 44.6823 106.301 44.6823 95.9922C44.6823 85.6829 36.3249 77.3255 26.0156 77.3255ZM166 77.3255C155.691 77.3255 147.333 85.6829 147.333 95.9922C147.333 106.302 155.691 114.659 166 114.659C176.309 114.659 184.667 106.302 184.667 95.9922C184.667 85.6829 176.309 77.3255 166 77.3255ZM26.0156 95.9922L26.0156 99.4922L166 99.4922L166 95.9922L166 92.4922L26.0156 92.4922L26.0156 95.9922Z" fill="white"/>
<path d="M59.7232 33.3011C52.4335 26.0114 40.6144 26.0114 33.3246 33.3011C26.0348 40.5909 26.0348 52.41 33.3246 59.6998C40.6144 66.9896 52.4335 66.9896 59.7232 59.6998C67.013 52.41 67.013 40.5909 59.7232 33.3011ZM158.707 132.285C151.417 124.995 139.598 124.995 132.308 132.285C125.019 139.575 125.019 151.394 132.308 158.684C139.598 165.973 151.417 165.973 158.707 158.684C165.997 151.394 165.997 139.575 158.707 132.285ZM46.5239 46.5005L44.049 48.9753L143.033 147.959L145.508 145.484L147.983 143.01L48.9988 44.0256L46.5239 46.5005Z" fill="white"/>
<path d="M114.682 26.0078C114.682 15.6985 106.325 7.34114 96.0156 7.34114C85.7063 7.34114 77.349 15.6985 77.349 26.0078C77.349 36.3171 85.7063 44.6745 96.0156 44.6745C106.325 44.6745 114.682 36.3171 114.682 26.0078ZM114.682 165.992C114.682 155.683 106.325 147.326 96.0156 147.326C85.7063 147.326 77.349 155.683 77.349 165.992C77.349 176.302 85.7063 184.659 96.0156 184.659C106.325 184.659 114.682 176.302 114.682 165.992ZM96.0156 26.0078L92.5156 26.0078L92.5156 165.992L96.0156 165.992L99.5156 165.992L99.5156 26.0078L96.0156 26.0078Z" fill="white"/>
</g>
<defs>
<clipPath id="clip0_1404_59">
<rect width="192" height="192" fill="white"/>
</clipPath>
</defs>
</svg>
