<svg width="130" height="54" viewBox="0 0 130 54" fill="none" xmlns="http://www.w3.org/2000/svg">
<path d="M23.584 23.3803C22.968 23.9523 22.352 24.4363 21.824 25.0083C20.856 26.0643 19.8 27.0323 18.744 28.0443C18.524 28.2643 18.216 28.4403 17.952 28.6163C16.808 29.4963 15.004 28.7923 14.872 27.2963C14.74 26.3723 14.916 25.4483 15.18 24.5683C15.576 23.1603 16.236 21.8403 16.984 20.6083C17.292 20.0803 17.556 19.9923 18.084 20.1683C18.216 20.2123 18.348 20.2563 18.436 20.3443C19.36 20.8283 19.448 21.1363 18.964 22.0603C18.348 23.3803 17.732 24.7003 17.248 26.0643C17.072 26.6363 16.896 27.1643 16.896 27.7363C16.896 28.1323 16.984 28.1763 17.336 28.0443C17.952 27.7363 18.48 27.3403 18.964 26.9003C20.416 25.6243 21.604 24.1723 22.66 22.6323C23.056 22.0603 23.408 21.4443 23.76 20.8723C24.244 20.1683 24.508 20.0803 25.3 20.3883C26.18 20.6963 26.576 21.2683 26.488 22.2363C26.356 23.2483 26.18 24.2603 25.872 25.2283C25.828 25.4483 25.696 25.6683 25.74 25.9323C25.96 26.0643 26.092 25.8883 26.224 25.8003C27.632 25.0083 29.04 24.2603 30.492 23.5563C30.8 23.3803 31.152 23.2483 31.504 23.1603C31.592 23.1163 31.724 23.0723 31.856 23.2043C31.724 23.5123 31.416 23.6443 31.152 23.7763C29.392 24.7003 27.72 25.6683 26.004 26.6363C25.52 26.9003 25.3 27.2083 25.168 27.6923C24.068 31.3003 22.792 34.8643 21.076 38.2963C19.096 42.2123 16.588 45.8203 13.288 48.8123C10.956 50.8803 8.272 52.2443 5.192 52.7283C4.4 52.8163 3.608 52.9043 2.772 52.7723C1.012 52.5083 0 51.3203 0 49.5603C0 48.5043 0.264001 47.5363 0.660001 46.5683C1.364 44.8523 2.42 43.3123 3.608 41.9043C5.94 39.0883 8.668 36.8003 11.616 34.7763C14.784 32.5763 18.084 30.5963 21.34 28.6603C22 28.2643 22.352 27.8243 22.528 27.1643C22.792 26.1523 23.144 25.1843 23.452 24.2163C23.496 23.9523 23.628 23.7323 23.584 23.3803ZM1.056 49.0323C0.88 50.8803 2.024 52.2443 4.048 52.1123C6.16 51.9803 8.052 51.2763 9.768 50.0003C12.364 48.0643 14.388 45.6883 16.06 42.9603C18.612 38.8243 20.328 34.3363 21.736 29.7163C21.78 29.5843 21.868 29.4523 21.736 29.3643C21.604 29.1883 21.472 29.3643 21.34 29.4523C21.252 29.4963 21.208 29.5403 21.12 29.5843C18.48 31.2123 15.84 32.7963 13.288 34.5563C10.472 36.5363 7.7 38.6043 5.412 41.2003C4.048 42.6963 2.816 44.2803 1.936 46.1283C1.452 47.0523 1.1 47.9763 1.056 49.0323Z" fill="white"/>
<path d="M32.3228 26.4603C32.5428 26.3723 32.6748 26.1963 32.8068 26.0643C34.1708 24.7443 35.4028 23.2923 36.6788 21.8843C38.7468 19.6843 40.7708 17.3963 43.1468 15.5483C44.1148 14.8443 44.5988 14.8883 45.3468 15.7683C45.6988 16.1643 45.7428 16.6483 45.5228 17.1763C45.1268 18.1883 44.5108 19.1123 43.9828 20.0363C43.1908 21.3563 42.3988 22.5883 41.8268 23.9963C41.6068 24.5243 41.4308 25.0523 41.2988 25.5803C41.2548 25.7563 41.2548 25.9763 41.2548 26.1523C41.2988 26.5923 41.4748 26.6803 41.8708 26.6363C43.0588 26.5043 44.1588 26.0643 45.2588 25.5803C46.3148 25.1403 47.2828 24.6123 48.2508 23.9523C48.6468 23.7323 48.9988 23.4243 49.5708 23.3803C49.3948 23.8643 49.0428 24.0843 48.7348 24.3483C47.5468 25.2723 46.1828 25.9763 44.7748 26.5043C44.0268 26.8123 43.2788 27.0763 42.5308 27.2083C42.2668 27.2523 42.0028 27.2963 41.7388 27.2963C40.7268 27.2963 39.9788 26.6803 39.8468 25.6683C39.7148 24.4803 40.0228 23.2923 40.4628 22.1923C40.9028 20.9163 41.5628 19.7283 42.1788 18.5403C42.3108 18.3643 42.4428 18.1443 42.4428 17.9243C42.2668 17.8363 42.1348 17.9683 42.0468 18.0563C40.2868 19.3323 38.6148 20.7403 37.1628 22.3683C35.9748 23.6443 34.7428 24.8763 33.5988 26.2403C33.0268 26.9003 32.3668 27.5603 31.7068 28.2203C31.3108 28.6163 30.9148 28.7483 30.3868 28.5283C29.8588 28.2643 29.5948 27.9123 29.6388 27.2963C29.6828 26.6363 29.8588 26.0203 30.0788 25.4043C31.0028 23.1603 32.2788 21.1363 33.7748 19.2003C34.2588 18.5843 34.5668 18.5403 35.2268 18.8483C35.4468 18.9803 35.6228 19.1123 35.7988 19.2883C36.1508 19.6843 36.1948 19.9483 35.9308 20.4323C35.3588 21.4003 34.7868 22.4123 34.1708 23.3803C33.6428 24.2603 33.0268 25.1843 32.4548 26.0643C32.4108 26.1963 32.2788 26.2843 32.3228 26.4603Z" fill="white"/>
<path d="M56.7559 25.4923C56.4919 25.4483 56.3599 25.6243 56.1839 25.7123C55.0399 26.4603 53.8519 27.2083 52.7079 27.9563C51.9159 28.4403 51.1239 28.8803 50.2879 29.2763C48.6159 30.1123 47.1639 28.4843 47.2079 27.2523C47.2079 26.4163 47.3839 25.5803 47.7799 24.8323C48.7919 22.8963 50.2439 21.4443 52.3119 20.6523C53.9839 20.0363 55.4359 20.5203 56.2719 21.9283C56.4919 22.2803 56.6239 22.6323 56.5799 23.0723C56.5799 23.3363 56.6679 23.4243 56.8879 23.4683C57.9439 23.7323 58.6039 24.5683 58.6919 25.6243C58.7359 25.8003 58.7359 25.9763 58.7359 26.1523C58.8239 26.5483 58.8679 26.5923 59.2639 26.3723C60.1879 25.8003 61.1119 25.2283 62.0799 24.6563C62.8279 24.2163 63.5759 23.8203 64.4119 23.5563C64.6319 23.4683 64.8519 23.3363 65.1159 23.4683C64.9839 23.8203 64.6759 23.9523 64.4119 24.0843C63.1799 24.8323 61.9039 25.4923 60.6719 26.2843C60.0999 26.6803 59.5719 27.0323 58.9999 27.4283C58.7359 27.5603 58.6039 27.7803 58.5599 28.0443C57.8999 30.8163 56.9319 33.5003 55.6999 36.0963C53.9399 39.8363 51.9159 43.4003 49.1879 46.5243C47.5159 48.5043 45.6239 50.2203 43.2479 51.3203C41.9719 51.8923 40.6519 52.3323 39.2439 52.5083C38.3639 52.6403 37.4839 52.5963 36.6479 52.3323C34.4919 51.6283 33.9199 50.2643 34.3599 48.2843C34.6679 46.9643 35.3719 45.8203 36.1639 44.7643C37.6599 42.7403 39.4199 40.9803 41.3119 39.3083C43.2039 37.6363 45.1839 36.0963 47.2079 34.6003C49.8919 32.6203 52.6199 30.7283 55.3919 28.8803C55.8319 28.6163 56.0959 28.2643 56.2279 27.7803C56.3599 27.0323 56.6679 26.3283 56.7559 25.4923ZM55.3479 29.9803C55.0839 29.8923 54.9519 30.1123 54.7759 30.2443C50.4199 33.2803 46.0199 36.2723 42.0159 39.7483C39.8599 41.6403 37.9239 43.7083 36.3399 46.0843C35.8119 46.9643 35.3719 47.8443 35.1959 48.8563C34.9319 50.2203 35.5919 51.3203 36.8679 51.7163C37.5719 51.9803 38.3199 51.9803 39.0679 51.8043C40.6079 51.4963 42.0159 50.8803 43.2919 49.9563C45.3599 48.5043 46.9879 46.6563 48.3959 44.5883C49.8039 42.5643 50.9479 40.3643 52.0479 38.1643C53.2799 35.6563 54.3359 33.0603 55.3039 30.4203C55.3479 30.2883 55.4799 30.1563 55.3479 29.9803ZM49.0559 28.1323C49.0559 28.5283 49.1439 28.6163 49.5399 28.5283C50.3319 28.4403 51.0359 28.0883 51.6959 27.6923C53.2359 26.7683 54.3799 25.4043 55.6559 24.1723C55.7879 24.0843 55.8759 23.9523 55.7439 23.7763C55.5239 23.4683 55.4799 23.0723 55.4359 22.6763C55.3479 22.2363 55.2159 22.1483 54.7759 22.2363C54.2919 22.3243 53.8079 22.5443 53.3679 22.7643C51.5199 23.8643 50.2439 25.3603 49.3199 27.2523C49.1879 27.5163 49.0999 27.8243 49.0559 28.1323Z" fill="white"/>
<path d="M65.7137 29.1003C65.7137 29.3203 65.6697 29.4963 65.5817 29.6723C65.4057 30.0243 65.1417 30.1563 64.7897 30.1563C64.4377 30.1563 64.2617 29.9803 64.1297 29.7163C63.9097 29.2323 63.9097 28.7923 64.1737 28.3083C64.3497 28.0003 64.6577 27.8243 65.0097 27.8683C65.3617 27.9123 65.5377 28.1323 65.6257 28.4403C65.7137 28.6603 65.7137 28.8803 65.7137 29.1003Z" fill="white"/>
<path d="M91.8373 23.6883C90.1653 23.6883 88.8013 24.3483 87.3933 24.8763C87.0413 25.0523 86.8653 25.2723 86.7773 25.6243C86.0293 28.7043 84.1813 31.1243 81.6733 33.0603C80.4413 34.0283 79.0773 34.8203 77.5813 35.2603C76.6133 35.5683 75.6453 35.7443 74.6333 35.5243C74.3253 35.4363 74.0613 35.3923 73.7973 35.2163C73.2253 34.8643 73.0053 34.2923 73.1813 33.6323C73.3573 33.0163 73.7093 32.5323 74.1053 32.0483C75.2493 30.7723 76.6133 29.6723 78.1093 28.7923C79.9573 27.6483 81.9373 26.6803 83.9173 25.7563C84.4453 25.4923 84.7093 25.1843 84.7973 24.6123C84.9733 23.7763 85.0613 22.9403 85.0173 22.1043C84.9733 21.9283 84.9293 21.7083 84.8853 21.5323C84.8413 21.2243 84.6213 21.1363 84.3573 21.2243C84.0933 21.3123 83.8293 21.4003 83.5653 21.5323C82.4213 22.1483 81.4093 22.9403 80.4853 23.8203C79.0773 25.1403 77.8893 26.5923 76.7453 28.1323C76.5693 28.3083 76.3933 28.5283 76.2173 28.7483C75.9093 29.0563 75.6013 29.1443 75.2053 29.0123C74.8093 28.8803 74.5893 28.5723 74.5453 28.1763C74.5013 27.7803 74.5453 27.3403 74.5893 26.9443C74.7653 26.0203 75.0293 25.1403 75.3373 24.2163C77.1413 19.2883 79.8253 14.8003 82.9493 10.5763C84.2253 8.81627 85.5453 7.14427 86.9973 5.56027C87.6573 4.81226 88.3173 4.06427 89.0653 3.44827C89.2853 3.27227 89.5053 3.05227 89.7693 2.92027C90.4733 2.43627 91.1773 2.56826 91.6613 3.22827C91.8373 3.44827 91.8373 3.66827 91.6173 3.88827C88.4933 7.01227 85.8973 10.5323 83.4773 14.1843C81.8933 16.5603 80.4413 19.0243 79.1213 21.5763C78.2413 23.2043 77.3613 24.8323 76.6573 26.5483C76.5693 26.7243 76.4813 26.8563 76.4813 27.0763C76.7013 27.0763 76.7453 26.9443 76.8333 26.8123C78.0653 25.2283 79.2973 23.5563 80.7933 22.1483C81.4533 21.5323 82.1573 20.9603 82.9933 20.4763C84.7093 19.4643 86.5133 20.6963 86.8213 22.1483C86.9093 22.6323 86.9973 23.1603 86.9973 23.6883C87.0413 24.3043 87.0413 24.3483 87.6573 24.0843C88.3613 23.8643 89.0653 23.6003 89.7693 23.4243C90.2093 23.2923 90.6493 23.2923 91.0893 23.2923C91.3533 23.2923 91.5733 23.3363 91.8373 23.6883ZM84.1373 26.4603C83.6973 26.6803 83.4333 26.7683 83.1693 26.9443C81.6733 27.6923 80.1773 28.5283 78.7693 29.4083C77.9773 29.8483 77.2293 30.3763 76.5253 30.9923C75.8213 31.5643 75.2053 32.1803 74.6773 32.9283C74.4573 33.2803 74.2813 33.6323 74.2373 34.0283C74.1933 34.5563 74.4573 34.9083 74.9853 34.9083C75.2493 34.9523 75.5133 34.9083 75.7333 34.8203C76.7013 34.6003 77.5373 34.1603 78.3733 33.6323C80.5733 32.1803 82.3333 30.2883 83.5653 27.9563C83.8293 27.5163 84.0053 27.0763 84.1373 26.4603Z" fill="white"/>
<path d="M102.12 23.1163C101.9 23.6883 101.592 24.0403 101.284 24.3483C98.9082 26.9883 96.0922 29.0563 92.8362 30.4203C92.3082 30.6403 91.7362 30.7723 91.1642 30.5963C90.4602 30.3763 90.0642 29.9363 89.9322 29.1443C89.8002 28.3523 89.8882 27.5603 90.0202 26.8123C90.3722 24.8763 90.9882 23.0283 91.7362 21.1803C93.4522 17.0003 95.6962 13.0403 98.2042 9.25627C99.6122 7.01227 101.24 4.85627 102.912 2.78826C103.044 2.65627 103.176 2.52427 103.264 2.39227C103.792 1.90827 104.1 1.86427 104.672 2.30427C104.848 2.43627 104.98 2.56826 105.112 2.74427C105.376 3.00827 105.376 3.27227 105.2 3.58026C105.068 3.75627 104.936 3.97626 104.804 4.15227C102.208 7.80427 99.7002 11.5443 97.4562 15.4603C95.5642 18.6723 93.8482 21.9723 92.4842 25.4483C92.0882 26.5043 91.7362 27.5603 91.6042 28.6603C91.5602 28.9683 91.5162 29.2763 91.5602 29.5843C91.6042 29.8483 91.7362 29.9803 92.0002 29.8483C92.3522 29.7603 92.6602 29.6723 92.9682 29.5403C95.2122 28.5283 97.2362 27.1203 99.1282 25.4923C99.7442 24.9643 100.36 24.3923 100.976 23.8203C101.284 23.5563 101.592 23.3363 102.12 23.1163Z" fill="white"/>
<path d="M108.824 23.6443C108.604 23.6443 108.516 23.7763 108.384 23.8643C107.46 24.7443 106.36 25.4483 105.304 26.1523C104.908 26.4163 104.468 26.5923 103.984 26.7683C103.5 26.9443 102.972 26.9443 102.488 26.8123C101.3 26.5043 100.772 25.6683 100.904 24.4803C101.036 23.1163 101.696 21.9723 102.532 20.9163C103.236 19.9923 104.116 19.1563 105.128 18.5403C107.064 17.3963 108.912 17.4403 110.628 18.7603C111.024 19.0683 111.068 19.0683 111.332 18.5843C112.74 15.9003 114.324 13.3483 116.084 10.8843C117.668 8.68427 119.34 6.57227 121.408 4.76827C122.024 4.19626 122.684 3.75627 123.388 3.40427C123.828 3.22827 124.268 3.09627 124.664 3.31627C125.456 3.66827 125.676 4.32827 125.368 5.12027C124.972 6.00027 124.4 6.79227 123.828 7.54027C121.716 10.3563 119.472 12.9963 117.052 15.5483C116.304 16.3403 115.556 17.1323 114.808 17.8803C114.456 18.2763 114.148 18.6723 113.928 19.1123C113.092 20.7403 112.256 22.3243 111.376 23.9523C110.012 26.5483 108.956 29.3203 108.076 32.0923C107.812 32.8843 107.636 33.6763 107.46 34.5123C107.416 34.7763 107.328 34.9963 107.68 35.2163C108.032 35.3923 107.768 36.0523 107.328 36.1843C106.844 36.3603 106.096 36.0083 105.964 35.4803C105.876 35.1283 105.876 34.7763 105.92 34.4243C106.052 33.2363 106.316 32.0483 106.624 30.8603C107.284 28.5723 107.944 26.2403 108.78 23.9963C108.824 23.8643 108.868 23.7763 108.824 23.6443ZM102.708 25.2283C102.576 26.1083 102.708 26.1963 103.412 26.0203C104.16 25.8003 104.82 25.4483 105.48 25.0523C106.756 24.3043 107.9 23.3803 109.044 22.4563C109.704 21.9723 109.968 21.3123 110.188 20.6523C110.452 19.7723 109.792 19.0243 108.868 19.1563C108.296 19.2443 107.812 19.4643 107.328 19.7723C105.744 20.6963 104.556 22.0163 103.544 23.5123C103.148 24.0843 102.84 24.7003 102.708 25.2283ZM115.82 15.7683C116.084 15.7243 116.128 15.5923 116.216 15.5043C117.844 13.7443 119.428 11.9403 120.924 10.0043C121.936 8.64026 122.992 7.27627 123.828 5.73627C123.96 5.56027 124.092 5.38427 124.048 5.07627C120.572 8.11227 118.196 11.8523 115.82 15.7683Z" fill="white"/>
<path d="M129.652 23.5123C129.344 23.8643 128.948 24.1723 128.508 24.3923C126.264 25.7563 124.064 27.2083 121.864 28.7043C121.776 28.7483 121.732 28.8363 121.644 28.8803C121.204 29.1883 121.204 29.1883 121.336 29.7163C121.644 30.6843 121.82 31.6523 121.864 32.7083C121.864 34.5563 121.248 36.2283 120.236 37.7683C118.784 40.1003 116.716 41.8163 114.34 43.1363C112.668 44.1043 110.908 44.8083 109.016 45.0723C108.18 45.2483 107.3 45.3363 106.42 45.1603C106.068 45.1163 105.716 45.0283 105.408 44.8963C104.22 44.4563 103.824 43.5323 104.264 42.3443C104.616 41.4203 105.188 40.7163 105.848 40.0123C107.608 38.1643 109.676 36.6243 111.744 35.1283C114.032 33.4123 116.364 31.7403 118.74 30.1123C119.312 29.7603 119.312 29.7163 119.092 29.1003C118.828 28.0883 118.388 27.1643 117.948 26.2403C117.508 25.2723 117.024 24.3483 116.804 23.2923C116.716 22.8523 116.716 22.4563 116.716 22.0163C116.848 20.9163 117.508 20.1243 118.564 19.8163C119.62 19.5523 120.588 19.9043 121.116 20.8283C121.16 20.9603 121.204 21.0923 121.248 21.1803C121.292 21.4443 121.292 21.7523 121.072 21.8403C120.808 21.9723 120.676 21.7083 120.588 21.5323C120.456 21.2243 120.236 21.2243 119.928 21.3563C118.784 21.8403 118.3 22.8083 118.652 23.9963C118.828 24.5683 119.092 25.1403 119.4 25.6683C119.796 26.4603 120.236 27.2523 120.676 28.0883C120.94 28.5723 120.94 28.5723 121.38 28.2643C122.436 27.6043 123.492 26.9003 124.548 26.1963C125.912 25.3163 127.32 24.4803 128.772 23.7323C129.036 23.6003 129.3 23.4683 129.608 23.3803C129.608 23.4243 129.652 23.4683 129.652 23.5123ZM106.948 44.5883C108.444 44.5883 109.808 44.1483 111.084 43.5763C112.844 42.7403 114.428 41.6843 115.836 40.3643C117.112 39.1763 118.212 37.9003 118.96 36.3603C119.752 34.6003 119.972 32.7963 119.576 30.9923C119.488 30.5083 119.4 30.4643 118.96 30.7283C118.916 30.7723 118.916 30.7723 118.872 30.8163C115.352 33.3243 111.832 35.8323 108.532 38.6483C107.52 39.5283 106.552 40.4963 105.76 41.5963C105.452 42.0363 105.144 42.5203 105.1 43.0923C104.968 43.8843 105.32 44.4123 106.112 44.5443C106.42 44.5883 106.728 44.5883 106.948 44.5883Z" fill="white"/>
</svg>
