<svg width="192" height="192" viewBox="0 0 192 192" fill="none" xmlns="http://www.w3.org/2000/svg">
<g clip-path="url(#clip0_1404_155)">
<path d="M100.842 59.8467L102.538 69.2324L108.7 61.9521L128.106 39.0234L117.953 67.2949L114.729 76.2705L123.705 73.0469L151.976 62.8926L129.048 82.2998L121.768 88.4619L131.153 90.1582L160.714 95.5L131.153 100.842L121.768 102.538L129.048 108.7L151.976 128.106L123.705 117.953L114.729 114.729L117.953 123.705L128.106 151.976L108.7 129.048L102.538 121.768L100.842 131.153L95.5 160.714L90.1582 131.153L88.4619 121.768L82.2998 129.048L62.8926 151.976L73.0469 123.705L76.2705 114.729L67.2949 117.953L39.0234 128.106L61.9521 108.7L69.2324 102.538L59.8467 100.842L30.2852 95.5L59.8467 90.1582L69.2324 88.4619L61.9521 82.2998L39.0234 62.8926L67.2949 73.0469L76.2705 76.2705L73.0469 67.2949L62.8926 39.0234L82.2998 61.9521L88.4619 69.2324L90.1582 59.8467L95.5 30.2852L100.842 59.8467Z" stroke="white" stroke-width="8.99379"/>
<path d="M96.9219 73.8574L97.9873 86.2158L105.09 76.0459L114.568 62.4707L107.553 77.4678L102.297 88.7031L113.532 83.4473L128.528 76.4307L114.954 85.9102L104.784 93.0127L117.143 94.0781L133.637 95.5L117.143 96.9219L104.784 97.9873L114.954 105.09L128.528 114.568L113.532 107.553L102.297 102.297L107.553 113.532L114.568 128.528L105.09 114.954L97.9873 104.784L96.9219 117.143L95.5 133.637L94.0781 117.143L93.0127 104.784L85.9102 114.954L76.4307 128.528L83.4473 113.532L88.7031 102.297L77.4678 107.553L62.4707 114.568L76.0459 105.09L86.2158 97.9873L73.8574 96.9219L57.3623 95.5L73.8574 94.0781L86.2158 93.0127L76.0459 85.9102L62.4707 76.4307L77.4678 83.4473L88.7031 88.7031L83.4473 77.4678L76.4307 62.4707L85.9102 76.0459L93.0127 86.2158L94.0781 73.8574L95.5 57.3623L96.9219 73.8574Z" stroke="white" stroke-width="8.99379"/>
</g>
<defs>
<clipPath id="clip0_1404_155">
<rect width="192" height="192" fill="white"/>
</clipPath>
</defs>
</svg>
