<svg width="1430" height="138" viewBox="0 0 1430 138" fill="none" xmlns="http://www.w3.org/2000/svg">
<path d="M0.441895 1.88525H14.2887L43.3476 65.0737H44.6478L94.5095 1.88525H108.616L48.0283 77.3603L38.472 135.023H26.3804L35.8716 77.3603L0.441895 1.88525Z" fill="#2B2B2B"/>
<path d="M223.162 69.1692C220.865 82.9077 216.444 94.8477 209.9 104.989C203.356 115.13 195.36 122.975 185.912 128.522C176.464 134.07 166.192 136.843 155.098 136.843C143.699 136.843 134.078 134.005 126.234 128.327C118.433 122.606 112.907 114.589 109.656 104.274C106.406 93.9159 105.929 81.7376 108.226 67.7391C110.523 54.0005 114.944 42.0606 121.488 31.9193C128.032 21.7779 136.05 13.9335 145.541 8.38613C155.033 2.83872 165.347 0.0650107 176.485 0.0650107C187.754 0.0650107 197.288 2.90372 205.089 8.58115C212.89 14.2586 218.438 22.2763 221.731 32.6344C225.025 42.9491 225.502 55.1274 223.162 69.1692ZM200.344 67.7391C202.337 55.8641 213.259 45.7444 210.745 37.38C208.275 29.0155 204.027 22.623 198.003 18.2024C191.979 13.7385 184.677 11.5065 176.095 11.5065C167.211 11.5065 158.868 13.8035 151.067 18.3975C143.266 22.9481 136.613 29.5356 131.109 38.1601C125.605 46.7412 135.357 57.0776 133.32 69.1692C131.369 81.0008 118.108 91.1205 120.578 99.5283C123.048 107.893 127.296 114.307 133.32 118.771C139.387 123.191 146.733 125.402 155.358 125.402C164.285 125.402 172.65 123.105 180.451 118.511C188.252 113.917 194.883 107.329 200.344 98.7482C205.848 90.1237 198.393 79.7873 200.344 67.7391Z" fill="#2B2B2B"/>
<path d="M352.48 1.88525H364.637L350.075 90.037C348.558 99.0949 345.091 107.199 339.673 114.35C334.256 121.458 327.408 127.07 319.131 131.188C310.896 135.261 301.773 137.298 291.762 137.298C281.794 137.298 273.365 135.24 266.474 131.123C259.583 127.005 254.599 121.393 251.522 114.285C248.445 107.178 247.664 99.0949 249.181 90.037L263.743 1.88525H298.5L261.403 89.1919C260.276 96.2562 260.818 102.562 263.028 108.109C265.239 113.614 268.922 117.947 274.08 121.111C279.28 124.275 285.738 125.857 293.452 125.857C301.21 125.857 308.231 124.275 314.515 121.111C320.843 117.947 326.043 113.614 330.117 108.109C334.234 102.562 336.878 96.2562 338.048 89.1919L352.48 1.88525Z" fill="#2B2B2B"/>
<path d="M503.658 1.88525L481.555 135.023H469.723L409.59 23.5332H408.55L390.023 135.023H377.866L399.969 1.88525H411.736L472.064 113.505H473.104L491.696 1.88525H503.658Z" fill="#2B2B2B"/>
<path d="M624.086 43.4908C623.653 39.0269 622.656 34.8663 621.096 31.0091C619.536 27.1086 617.347 23.7065 614.53 20.8028C611.713 17.8991 608.224 15.6238 604.064 13.9769C599.947 12.33 595.093 11.5065 589.502 11.5065C581.224 11.5065 573.206 13.6952 565.449 18.0724C557.734 22.4497 551.038 28.8855 545.361 37.38C539.727 45.8311 535.891 56.1892 533.854 68.4541C531.861 80.4591 532.056 90.7088 534.439 99.2033C536.823 107.698 541.049 114.199 547.116 118.706C553.184 123.17 560.746 125.402 569.804 125.402C577.952 125.402 585.536 123.582 592.557 119.941C599.578 116.257 605.494 111.035 610.305 104.274C615.115 97.513 614 100 615.895 92.7648L619.536 94H576.89L582.676 70.5344H633.188L631.172 81.4559C629.352 92.8541 625.473 102.692 619.536 110.97C613.598 119.248 606.231 125.64 597.433 130.147C588.635 134.611 579.057 136.843 568.699 136.843C557.084 136.843 547.376 134.048 539.575 128.457C531.817 122.823 526.378 114.892 523.258 104.664C520.138 94.436 519.748 82.366 522.088 68.4541C523.735 58.0094 526.638 48.5832 530.799 40.1754C534.96 31.7676 540.074 24.595 546.141 18.6575C552.252 12.6767 559.056 8.08275 566.554 4.87566C574.095 1.66856 582.069 0.0650107 590.477 0.0650107C597.758 0.0650107 604.237 1.2135 609.915 3.51047C615.592 5.80745 620.403 8.9712 624.346 13.0017C628.29 16.9889 631.281 21.6046 633.318 26.8486C635.398 32.0493 636.481 37.5967 636.568 43.4908H624.086Z" fill="#2B2B2B"/>
<path d="M704.128 135.023L726.231 1.88525H771.152C779.82 1.88525 786.798 3.40212 792.085 6.43586C797.373 9.4696 801.013 13.6085 803.007 18.8525C805.044 24.0966 805.477 30.0557 804.307 36.7299C803.397 42.2773 801.685 47.023 799.171 50.9668C796.657 54.8673 793.602 58.0528 790.005 60.5231C786.451 62.9501 782.616 64.7053 778.498 65.7888L778.303 66.8289C782.551 67.1323 786.473 68.6492 790.07 71.3795C793.667 74.0666 796.354 77.8371 798.131 82.6911C799.951 87.545 800.32 93.3525 799.236 100.113C798.109 106.831 795.596 112.833 791.695 118.121C787.838 123.365 782.551 127.504 775.833 130.537C769.159 133.528 761.054 135.023 751.52 135.023H704.128ZM718.105 124.102H753.34C763.611 124.102 771.586 121.826 777.263 117.276C782.941 112.725 786.386 107.004 787.6 100.113C788.423 95.0427 787.946 90.4488 786.169 86.3315C784.392 82.171 781.489 78.8772 777.458 76.4502C773.428 74.0232 768.422 72.8097 762.441 72.8097H726.686L718.105 124.102ZM728.507 62.0183H762.376C767.62 62.0183 772.388 60.9348 776.678 58.7679C780.969 56.6009 784.522 53.6105 787.34 49.7967C790.157 45.9828 786.819 41.6272 787.6 36.7299C788.813 29.6656 792.627 23.9232 788.77 19.5026C784.956 15.0387 778.477 12.8067 769.332 12.8067H736.568L728.507 62.0183Z" fill="#2B2B2B"/>
<path d="M822.656 135.023L844.758 1.88525H856.915L836.632 124.102L900.081 100.113L898.261 135.023H822.656Z" fill="#2B2B2B"/>
<path d="M1040.52 69.1692C1038.22 82.9077 1033.8 94.8477 1027.25 104.989C1020.71 115.13 1012.71 122.975 1003.27 128.522C993.818 134.07 983.547 136.843 972.452 136.843C961.054 136.843 951.432 134.005 943.588 128.327C935.787 122.606 930.261 114.589 927.011 104.274C923.76 93.9159 923.284 81.7376 925.581 67.7391C927.877 54.0005 932.298 42.0606 938.842 31.9193C945.386 21.7779 953.404 13.9335 962.895 8.38613C972.387 2.83872 982.701 0.0650107 993.84 0.0650107C1005.11 0.0650107 1014.64 2.90372 1022.44 8.58115C1030.24 14.2586 1035.79 22.2763 1039.09 32.6344C1042.38 42.9491 1042.86 55.1274 1040.52 69.1692ZM1028.88 67.7391C1030.87 55.8641 1030.61 45.7444 1028.1 37.38C1025.63 29.0155 1021.38 22.623 1015.36 18.2024C1009.33 13.7385 1002.03 11.5065 993.45 11.5065C984.565 11.5065 976.222 13.8035 968.421 18.3975C960.62 22.9481 953.968 29.5356 948.464 38.1601C942.959 46.7412 939.189 57.0776 937.152 69.1692C935.202 81.0008 935.462 91.1205 937.932 99.5283C940.402 107.893 944.65 114.307 950.674 118.771C956.741 123.191 964.087 118.511 972.712 118.511C981.64 118.511 990.004 123.105 997.805 118.511C1005.61 113.917 1012.24 107.329 1017.7 98.7482C1023.2 90.1237 1026.93 79.7873 1028.88 67.7391Z" fill="#2B2B2B"/>
<path d="M1179.07 69.1692C1176.77 82.9077 1172.35 94.8477 1165.8 104.989C1159.26 115.13 1151.26 122.975 1141.82 128.522C1132.37 134.07 1122.1 136.843 1111 136.843C1099.6 136.843 1089.98 134.005 1082.14 128.327C1074.34 122.606 1068.81 114.589 1065.56 104.274C1062.31 93.9159 1061.83 81.7376 1064.13 67.7391C1066.43 54.0005 1070.85 42.0606 1077.39 31.9193C1083.94 21.7779 1091.95 13.9335 1101.45 8.38613C1110.94 2.83872 1121.25 0.0650107 1132.39 0.0650107C1143.66 0.0650107 1153.19 2.90372 1160.99 8.58115C1168.79 14.2586 1174.34 22.2763 1177.64 32.6344C1180.93 42.9491 1181.41 55.1274 1179.07 69.1692ZM1167.43 67.7391C1169.42 55.8641 1169.16 45.7444 1166.65 37.38C1164.18 29.0155 1159.93 22.623 1153.91 18.2024C1147.88 13.7385 1140.97 19.3076 1132.39 19.3076C1123.5 19.3076 1114.77 13.8035 1106.97 18.3975C1099.17 22.9481 1092.52 29.5356 1087.01 38.1601C1081.51 46.7412 1077.74 57.0776 1075.7 69.1692C1073.75 81.0008 1074.01 91.1205 1076.48 99.5283C1078.95 107.893 1083.2 114.307 1089.22 118.771C1095.29 123.191 1102.64 125.402 1111.26 125.402C1120.19 125.402 1128.55 123.105 1136.35 118.511C1144.16 113.917 1150.79 107.329 1156.25 98.7482C1161.75 90.1237 1165.48 79.7873 1167.43 67.7391Z" fill="#2B2B2B"/>
<path d="M1236.87 135.023H1197.54L1219.65 1.88525H1260.67C1273.32 1.88525 1283.77 4.57228 1292 9.94633C1300.24 15.3204 1305.96 23.0131 1309.16 33.0244C1312.37 42.9924 1312.8 54.9107 1310.46 68.7792C1308.17 82.6477 1303.77 94.5226 1297.27 104.404C1290.77 114.285 1282.4 121.87 1272.17 127.157C1261.99 132.401 1250.22 135.023 1236.87 135.023ZM1211.52 124.102H1237.52C1248.88 124.102 1258.8 121.805 1267.3 117.211C1275.79 112.617 1282.71 106.094 1288.04 97.6431C1293.37 89.1486 1296.99 79.0722 1298.89 67.414C1300.8 55.9725 1300.58 46.1778 1298.24 38.0301C1295.95 29.8823 1291.5 23.6415 1284.92 19.3076C1278.37 14.9737 1269.68 12.8067 1258.85 12.8067L1235.51 18.3975L1211.52 124.102Z" fill="#2B2B2B"/>
<path d="M1417.68 35.8848C1417.98 28.0838 1415.66 21.9729 1410.72 17.5523C1405.83 13.1318 1398.96 10.9215 1390.12 10.9215C1383.96 10.9215 1378.33 12.0049 1373.21 14.1719C1368.14 16.2955 1363.96 19.2209 1360.67 22.9481C1357.42 26.6752 1355.4 30.9225 1354.62 35.6898C1354.06 39.2002 1354.32 42.2773 1355.4 44.921C1356.49 47.5214 1358.15 49.775 1360.41 51.6819C1362.66 53.5888 1365.24 55.214 1368.14 56.5576C1371.09 57.9011 1374.08 59.0279 1377.11 59.938L1390.57 63.9685C1394.56 65.1387 1398.52 66.6339 1402.47 68.4541C1406.41 70.2744 1409.92 72.5497 1413 75.2801C1416.08 78.0104 1418.35 81.3692 1419.83 85.3564C1421.34 89.3436 1421.65 94.1109 1420.74 99.6583C1419.52 106.853 1416.62 113.288 1412.02 118.966C1407.47 124.6 1401.49 129.064 1394.08 132.358C1386.67 135.651 1378.11 137.298 1368.4 137.298C1359.35 137.298 1351.72 135.803 1345.52 132.813C1339.32 129.779 1334.75 125.597 1331.8 120.266C1328.86 114.935 1327.73 108.76 1328.42 101.739L1349.14 93.5C1348.67 98.744 1341.4 111.425 1343.83 115.065C1346.3 118.706 1349.81 121.48 1354.36 123.386C1358.96 125.25 1364.24 126.182 1370.22 126.182C1376.85 126.182 1382.94 125.077 1388.49 122.866C1394.04 120.613 1398.61 117.492 1402.21 113.505C1405.85 109.475 1408.1 104.794 1408.97 99.4633C1409.75 94.956 1409.21 91.1638 1407.34 88.0868C1405.52 85.0097 1402.68 82.431 1398.83 80.3507C1395.01 78.2271 1390.46 76.3635 1385.18 74.76L1369.96 70.0794C1360.04 67.0456 1352.65 62.7767 1347.8 57.2727C1342.98 51.7686 1341.27 44.7476 1342.66 36.2098C1343.87 29.0155 1346.84 22.7097 1351.57 17.2923C1356.33 11.8316 1362.25 7.58435 1369.31 4.55062C1376.38 1.51687 1384.01 0 1392.2 0C1400.47 0 1407.52 1.53854 1413.32 4.61562C1419.18 7.69269 1423.51 11.9399 1426.33 17.3573C1429.19 22.7314 1430.25 28.9072 1429.51 35.8848H1417.68Z" fill="#2B2B2B"/>
</svg>
